<mxfile host="app.diagrams.net" modified="2023-12-09T03:25:11.034Z" agent="Mozilla/5.0 (Windows NT 10.0; Win64; x64) AppleWebKit/537.36 (KHTML, like Gecko) Chrome/119.0.0.0 Safari/537.36" etag="5noMIrJtAdUm_qMnLcal" version="22.1.7" type="device">
  <diagram id="C5RBs43oDa-KdzZeNtuy" name="Page-1">
    <mxGraphModel dx="5570" dy="5488" grid="1" gridSize="10" guides="1" tooltips="1" connect="1" arrows="1" fold="1" page="1" pageScale="1" pageWidth="827" pageHeight="1169" math="0" shadow="0">
      <root>
        <mxCell id="WIyWlLk6GJQsqaUBKTNV-0" />
        <mxCell id="WIyWlLk6GJQsqaUBKTNV-1" parent="WIyWlLk6GJQsqaUBKTNV-0" />
        <mxCell id="CaYZFUY7cnY6W1_ikCHt-66" value="USER" style="html=1;overflow=block;blockSpacing=1;whiteSpace=wrap;fontSize=30;fontColor=#3a414a;spacing=9;strokeColor=#3a414a;strokeOpacity=100;rounded=1;absoluteArcSize=1;arcSize=9;strokeWidth=4;lucidId=dufUrYE8fp6r;container=0;fontFamily=Helvetica;fontStyle=1" parent="WIyWlLk6GJQsqaUBKTNV-1" vertex="1">
          <mxGeometry x="1410.7407407407406" y="-1462.0116618075801" width="220.5291005291005" height="139.32944606413994" as="geometry" />
        </mxCell>
        <mxCell id="CaYZFUY7cnY6W1_ikCHt-67" value="USER_ID" style="html=1;overflow=block;blockSpacing=1;whiteSpace=wrap;ellipse;fontSize=30;fontColor=#3a414a;fontStyle=5;spacing=3.8;strokeColor=#3a414a;strokeOpacity=100;rounded=1;absoluteArcSize=1;arcSize=9;strokeWidth=4;lucidId=FufUmzV54v1G;container=0;fontFamily=Helvetica;" parent="WIyWlLk6GJQsqaUBKTNV-1" vertex="1">
          <mxGeometry x="1079.9470899470898" y="-1616.8221574344022" width="211.34038800705466" height="131.58892128279885" as="geometry" />
        </mxCell>
        <mxCell id="CaYZFUY7cnY6W1_ikCHt-68" value="" style="html=1;jettySize=18;whiteSpace=wrap;fontSize=30;strokeColor=#3a414a;strokeOpacity=100;strokeWidth=4;rounded=0;startArrow=none;endArrow=none;exitX=0.901;exitY=0.804;exitPerimeter=0;entryX=-0.003;entryY=0.123;entryPerimeter=0;lucidId=fwfUZm3~zP0I;fontFamily=Helvetica;fontStyle=1" parent="WIyWlLk6GJQsqaUBKTNV-1" source="CaYZFUY7cnY6W1_ikCHt-67" target="CaYZFUY7cnY6W1_ikCHt-66" edge="1">
          <mxGeometry width="100" height="100" relative="1" as="geometry">
            <Array as="points" />
          </mxGeometry>
        </mxCell>
        <mxCell id="CaYZFUY7cnY6W1_ikCHt-69" value="ADMIN_ID" style="html=1;overflow=block;blockSpacing=1;whiteSpace=wrap;ellipse;fontSize=30;fontColor=#3a414a;spacing=3.8;strokeColor=#3a414a;strokeOpacity=100;rounded=1;absoluteArcSize=1;arcSize=9;strokeWidth=4;lucidId=owfUF3jC6nl~;container=0;fontFamily=Helvetica;fontStyle=1" parent="WIyWlLk6GJQsqaUBKTNV-1" vertex="1">
          <mxGeometry x="1169.9964726631392" y="-1813.4314868804665" width="211.34038800705466" height="131.58892128279885" as="geometry" />
        </mxCell>
        <mxCell id="CaYZFUY7cnY6W1_ikCHt-70" value="UAT_ID" style="html=1;overflow=block;blockSpacing=1;whiteSpace=wrap;ellipse;fontSize=30;fontColor=#3a414a;spacing=3.8;strokeColor=#3a414a;strokeOpacity=100;rounded=1;absoluteArcSize=1;arcSize=9;strokeWidth=4;lucidId=LwfUj5gBnoDU;container=0;fontFamily=Helvetica;fontStyle=1" parent="WIyWlLk6GJQsqaUBKTNV-1" vertex="1">
          <mxGeometry x="1401.5520282186947" y="-1880" width="211.34038800705466" height="131.58892128279885" as="geometry" />
        </mxCell>
        <mxCell id="CaYZFUY7cnY6W1_ikCHt-71" value="EMAIL" style="html=1;overflow=block;blockSpacing=1;whiteSpace=wrap;ellipse;fontSize=30;fontColor=#3a414a;spacing=3.8;strokeColor=#3a414a;strokeOpacity=100;rounded=1;absoluteArcSize=1;arcSize=9;strokeWidth=4;lucidId=BxfUwPNIw460;container=0;fontFamily=Helvetica;fontStyle=1" parent="WIyWlLk6GJQsqaUBKTNV-1" vertex="1">
          <mxGeometry x="1682.726631393298" y="-1813.4314868804665" width="211.34038800705466" height="131.58892128279885" as="geometry" />
        </mxCell>
        <mxCell id="CaYZFUY7cnY6W1_ikCHt-72" value="PASSWORD" style="html=1;overflow=block;blockSpacing=1;whiteSpace=wrap;ellipse;fontSize=30;fontColor=#3a414a;spacing=3.8;strokeColor=#3a414a;strokeOpacity=100;rounded=1;absoluteArcSize=1;arcSize=9;strokeWidth=4;lucidId=TxfUQe-ltss1;container=0;fontFamily=Helvetica;fontStyle=1" parent="WIyWlLk6GJQsqaUBKTNV-1" vertex="1">
          <mxGeometry x="1833.42151675485" y="-1616.8221574344022" width="211.34038800705466" height="131.58892128279885" as="geometry" />
        </mxCell>
        <mxCell id="CaYZFUY7cnY6W1_ikCHt-73" value="" style="html=1;jettySize=18;whiteSpace=wrap;fontSize=30;strokeColor=#3a414a;strokeOpacity=100;strokeWidth=4;rounded=0;startArrow=none;endArrow=none;exitX=0.699;exitY=0.963;exitPerimeter=0;entryX=0.281;entryY=-0.004;entryPerimeter=0;lucidId=lyfUdAXbGZ_a;fontFamily=Helvetica;fontStyle=1" parent="WIyWlLk6GJQsqaUBKTNV-1" source="CaYZFUY7cnY6W1_ikCHt-69" target="CaYZFUY7cnY6W1_ikCHt-66" edge="1">
          <mxGeometry width="100" height="100" relative="1" as="geometry">
            <Array as="points" />
          </mxGeometry>
        </mxCell>
        <mxCell id="CaYZFUY7cnY6W1_ikCHt-74" value="" style="html=1;jettySize=18;whiteSpace=wrap;fontSize=30;strokeColor=#3a414a;strokeOpacity=100;strokeWidth=4;rounded=1;arcSize=12;edgeStyle=orthogonalEdgeStyle;startArrow=none;endArrow=none;exitX=0.5;exitY=1.004;exitPerimeter=0;entryX=0.438;entryY=-0.004;entryPerimeter=0;lucidId=syfUzyM-IhT3;fontFamily=Helvetica;fontStyle=1" parent="WIyWlLk6GJQsqaUBKTNV-1" source="CaYZFUY7cnY6W1_ikCHt-70" target="CaYZFUY7cnY6W1_ikCHt-66" edge="1">
          <mxGeometry width="100" height="100" relative="1" as="geometry">
            <Array as="points" />
          </mxGeometry>
        </mxCell>
        <mxCell id="CaYZFUY7cnY6W1_ikCHt-75" value="" style="html=1;jettySize=18;whiteSpace=wrap;fontSize=30;strokeColor=#3a414a;strokeOpacity=100;strokeWidth=4;rounded=0;startArrow=none;endArrow=none;exitX=0.5;exitY=1.004;exitPerimeter=0;entryX=0.819;entryY=-0.004;entryPerimeter=0;lucidId=uyfUn7YOvYAR;fontFamily=Helvetica;fontStyle=1" parent="WIyWlLk6GJQsqaUBKTNV-1" source="CaYZFUY7cnY6W1_ikCHt-71" target="CaYZFUY7cnY6W1_ikCHt-66" edge="1">
          <mxGeometry width="100" height="100" relative="1" as="geometry">
            <Array as="points" />
          </mxGeometry>
        </mxCell>
        <mxCell id="CaYZFUY7cnY6W1_ikCHt-76" value="" style="html=1;jettySize=18;whiteSpace=wrap;fontSize=30;strokeColor=#3a414a;strokeOpacity=100;strokeWidth=4;rounded=0;startArrow=none;endArrow=none;exitX=0.111;exitY=0.819;exitPerimeter=0;entryX=1.003;entryY=0.325;entryPerimeter=0;lucidId=6yfUNuHCh2vm;fontFamily=Helvetica;fontStyle=1" parent="WIyWlLk6GJQsqaUBKTNV-1" source="CaYZFUY7cnY6W1_ikCHt-72" target="CaYZFUY7cnY6W1_ikCHt-66" edge="1">
          <mxGeometry width="100" height="100" relative="1" as="geometry">
            <Array as="points" />
          </mxGeometry>
        </mxCell>
        <mxCell id="CaYZFUY7cnY6W1_ikCHt-77" value="has_a" style="html=1;overflow=block;blockSpacing=1;whiteSpace=wrap;rhombus;fontSize=30;fontColor=#3a414a;spacing=3.8;strokeColor=#3a414a;strokeOpacity=100;rounded=1;absoluteArcSize=1;arcSize=9;strokeWidth=4;lucidId=lzfU8Bc~2..T;container=0;fontFamily=Helvetica;fontStyle=1" parent="WIyWlLk6GJQsqaUBKTNV-1" vertex="1">
          <mxGeometry x="1410.7407407407406" y="-1160.1311953352767" width="220.5291005291005" height="139.32944606413994" as="geometry" />
        </mxCell>
        <mxCell id="CaYZFUY7cnY6W1_ikCHt-78" value="" style="html=1;jettySize=18;whiteSpace=wrap;fontSize=30;fontColor=#333333;fontStyle=1;strokeColor=#3a414a;strokeOpacity=100;strokeWidth=4;rounded=0;startArrow=none;endArrow=none;exitX=0.5;exitY=0.012;exitPerimeter=0;entryX=0.5;entryY=1.004;entryPerimeter=0;lucidId=RCfUqvC6Cd_-;fontFamily=Helvetica;" parent="WIyWlLk6GJQsqaUBKTNV-1" source="CaYZFUY7cnY6W1_ikCHt-77" target="CaYZFUY7cnY6W1_ikCHt-66" edge="1">
          <mxGeometry width="100" height="100" relative="1" as="geometry">
            <Array as="points" />
          </mxGeometry>
        </mxCell>
        <mxCell id="CaYZFUY7cnY6W1_ikCHt-79" value="1" style="text;html=1;resizable=0;labelBackgroundColor=default;align=center;verticalAlign=middle;fontStyle=1;fontColor=#333333;fontSize=30;container=0;fontFamily=Helvetica;" parent="CaYZFUY7cnY6W1_ikCHt-78" vertex="1">
          <mxGeometry x="1" relative="1" as="geometry">
            <mxPoint x="-31" y="32" as="offset" />
          </mxGeometry>
        </mxCell>
        <mxCell id="CaYZFUY7cnY6W1_ikCHt-80" value="1" style="text;html=1;resizable=0;labelBackgroundColor=default;align=center;verticalAlign=middle;fontStyle=1;fontColor=#333333;fontSize=30;container=0;fontFamily=Helvetica;" parent="CaYZFUY7cnY6W1_ikCHt-78" vertex="1">
          <mxGeometry x="0.8859839798131754" relative="1" as="geometry">
            <mxPoint x="19" y="23" as="offset" />
          </mxGeometry>
        </mxCell>
        <mxCell id="CaYZFUY7cnY6W1_ikCHt-81" value="" style="html=1;jettySize=18;whiteSpace=wrap;fontSize=30;fontColor=#333333;fontStyle=1;strokeColor=#3a414a;strokeOpacity=100;strokeWidth=4;rounded=0;startArrow=none;endArrow=none;exitX=0.016;exitY=0.5;exitPerimeter=0;entryX=1.003;entryY=0.333;entryPerimeter=0;lucidId=~CfU8dtUmUhV;fontFamily=Helvetica;" parent="WIyWlLk6GJQsqaUBKTNV-1" source="CaYZFUY7cnY6W1_ikCHt-77" target="CaYZFUY7cnY6W1_ikCHt-83" edge="1">
          <mxGeometry width="100" height="100" relative="1" as="geometry">
            <Array as="points" />
          </mxGeometry>
        </mxCell>
        <mxCell id="CaYZFUY7cnY6W1_ikCHt-82" value="N" style="text;html=1;resizable=0;labelBackgroundColor=default;align=center;verticalAlign=middle;fontStyle=1;fontColor=#333333;fontSize=30;container=0;fontFamily=Helvetica;" parent="CaYZFUY7cnY6W1_ikCHt-81" vertex="1">
          <mxGeometry x="0.8845747285723564" relative="1" as="geometry">
            <mxPoint y="23" as="offset" />
          </mxGeometry>
        </mxCell>
        <mxCell id="CaYZFUY7cnY6W1_ikCHt-83" value="USER_AT" style="html=1;overflow=block;blockSpacing=1;whiteSpace=wrap;fontSize=30;fontColor=#3a414a;spacing=9;verticalAlign=middle;strokeColor=#3a414a;strokeOpacity=100;rounded=1;absoluteArcSize=1;arcSize=9;strokeWidth=4;lucidId=dDfUym-ZcA7h;container=0;fontFamily=Helvetica;fontStyle=1" parent="WIyWlLk6GJQsqaUBKTNV-1" vertex="1">
          <mxGeometry x="859.4179894179895" y="-1136.9096209912536" width="220.5291005291005" height="139.32944606413994" as="geometry" />
        </mxCell>
        <mxCell id="CaYZFUY7cnY6W1_ikCHt-84" value="" style="html=1;jettySize=18;whiteSpace=wrap;fontSize=30;fontColor=#333333;fontStyle=1;strokeColor=#3a414a;strokeOpacity=100;strokeWidth=4;rounded=1;arcSize=12;edgeStyle=orthogonalEdgeStyle;startArrow=none;endArrow=none;exitX=0.984;exitY=0.5;exitPerimeter=0;entryX=-0.003;entryY=0.5;entryPerimeter=0;lucidId=MPfUSgwp~q2_;fontFamily=Helvetica;" parent="WIyWlLk6GJQsqaUBKTNV-1" source="CaYZFUY7cnY6W1_ikCHt-77" target="CaYZFUY7cnY6W1_ikCHt-86" edge="1">
          <mxGeometry width="100" height="100" relative="1" as="geometry">
            <Array as="points" />
          </mxGeometry>
        </mxCell>
        <mxCell id="CaYZFUY7cnY6W1_ikCHt-85" value="N" style="text;html=1;resizable=0;labelBackgroundColor=default;align=center;verticalAlign=middle;fontStyle=1;fontColor=#333333;fontSize=30;container=0;fontFamily=Helvetica;" parent="CaYZFUY7cnY6W1_ikCHt-84" vertex="1">
          <mxGeometry x="0.8747488187747439" relative="1" as="geometry">
            <mxPoint y="10" as="offset" />
          </mxGeometry>
        </mxCell>
        <mxCell id="CaYZFUY7cnY6W1_ikCHt-303" value="N" style="text;html=1;resizable=0;labelBackgroundColor=default;align=center;verticalAlign=middle;fontStyle=1;fontColor=#333333;fontSize=30;container=0;fontFamily=Helvetica;" parent="CaYZFUY7cnY6W1_ikCHt-84" vertex="1">
          <mxGeometry x="0.8747488187747439" relative="1" as="geometry">
            <mxPoint x="149" y="15" as="offset" />
          </mxGeometry>
        </mxCell>
        <mxCell id="wvT5fDZXquklgUt5dEYW-263" value="N" style="text;html=1;resizable=0;labelBackgroundColor=default;align=center;verticalAlign=middle;fontStyle=1;fontColor=#333333;fontSize=30;container=0;fontFamily=Helvetica;" vertex="1" parent="CaYZFUY7cnY6W1_ikCHt-84">
          <mxGeometry x="0.8747488187747439" relative="1" as="geometry">
            <mxPoint x="268" y="20" as="offset" />
          </mxGeometry>
        </mxCell>
        <mxCell id="CaYZFUY7cnY6W1_ikCHt-86" value="ADMIN" style="html=1;overflow=block;blockSpacing=1;whiteSpace=wrap;fontSize=30;fontColor=#3a414a;spacing=9;strokeColor=#3a414a;strokeOpacity=100;rounded=1;absoluteArcSize=1;arcSize=9;strokeWidth=4;lucidId=NPfU-UuYMGXh;container=0;fontFamily=Helvetica;fontStyle=1" parent="WIyWlLk6GJQsqaUBKTNV-1" vertex="1">
          <mxGeometry x="2017.1957671957673" y="-1160.1311953352767" width="220.5291005291005" height="139.32944606413994" as="geometry" />
        </mxCell>
        <mxCell id="CaYZFUY7cnY6W1_ikCHt-87" value="UAT_ID" style="html=1;overflow=block;blockSpacing=1;whiteSpace=wrap;ellipse;fontSize=30;fontColor=#3a414a;fontStyle=5;spacing=3.8;strokeColor=#3a414a;strokeOpacity=100;rounded=1;absoluteArcSize=1;arcSize=9;strokeWidth=4;lucidId=-QfUPdWI5O~R;container=0;fontFamily=Helvetica;" parent="WIyWlLk6GJQsqaUBKTNV-1" vertex="1">
          <mxGeometry x="280.5291005291005" y="-1090.466472303207" width="220.5291005291005" height="139.32944606413994" as="geometry" />
        </mxCell>
        <mxCell id="CaYZFUY7cnY6W1_ikCHt-88" value="UAT_EMAIL" style="html=1;overflow=block;blockSpacing=1;whiteSpace=wrap;ellipse;fontSize=30;fontColor=#3a414a;spacing=3.8;strokeColor=#3a414a;strokeOpacity=100;rounded=1;absoluteArcSize=1;arcSize=9;strokeWidth=4;lucidId=CRfUIIhuyXKf;container=0;fontFamily=Helvetica;fontStyle=1" parent="WIyWlLk6GJQsqaUBKTNV-1" vertex="1">
          <mxGeometry x="280.5291005291005" y="-1253.0174927113703" width="220.5291005291005" height="139.32944606413994" as="geometry" />
        </mxCell>
        <mxCell id="CaYZFUY7cnY6W1_ikCHt-89" value="UAT_PASS" style="html=1;overflow=block;blockSpacing=1;whiteSpace=wrap;ellipse;fontSize=30;fontColor=#3a414a;spacing=3.8;strokeColor=#3a414a;strokeOpacity=100;rounded=1;absoluteArcSize=1;arcSize=9;strokeWidth=4;lucidId=1RfUlgexhU_U;container=0;fontFamily=Helvetica;fontStyle=1" parent="WIyWlLk6GJQsqaUBKTNV-1" vertex="1">
          <mxGeometry x="363.2275132275132" y="-1415.5685131195335" width="220.5291005291005" height="139.32944606413994" as="geometry" />
        </mxCell>
        <mxCell id="CaYZFUY7cnY6W1_ikCHt-90" value="ADDRESS" style="html=1;overflow=block;blockSpacing=1;whiteSpace=wrap;ellipse;fontSize=30;fontColor=#3a414a;spacing=3.8;strokeColor=#3a414a;strokeOpacity=100;rounded=1;absoluteArcSize=1;arcSize=9;strokeWidth=4;lucidId=MSfUnPYUDYJp;container=0;fontFamily=Helvetica;fontStyle=1" parent="WIyWlLk6GJQsqaUBKTNV-1" vertex="1">
          <mxGeometry x="638.8888888888888" y="-1462.0116618075801" width="220.5291005291005" height="139.32944606413994" as="geometry" />
        </mxCell>
        <mxCell id="CaYZFUY7cnY6W1_ikCHt-91" value="UAT_NAME" style="html=1;overflow=block;blockSpacing=1;whiteSpace=wrap;ellipse;fontSize=30;fontColor=#3a414a;spacing=3.8;strokeColor=#3a414a;strokeOpacity=100;rounded=1;absoluteArcSize=1;arcSize=9;strokeWidth=4;lucidId=EUfUqPaSO_sZ;container=0;fontFamily=Helvetica;fontStyle=1" parent="WIyWlLk6GJQsqaUBKTNV-1" vertex="1">
          <mxGeometry x="390.7936507936507" y="-927.9154518950437" width="220.5291005291005" height="139.32944606413994" as="geometry" />
        </mxCell>
        <mxCell id="CaYZFUY7cnY6W1_ikCHt-92" value="&lt;font style=&quot;font-size: 30px;&quot;&gt;STREET&lt;/font&gt;" style="html=1;overflow=block;blockSpacing=1;whiteSpace=wrap;ellipse;fontSize=30;fontColor=#3a414a;spacing=3.8;strokeColor=#3a414a;strokeOpacity=100;rounded=1;absoluteArcSize=1;arcSize=9;strokeWidth=4;lucidId=OVfU4Ak3pdCx;container=0;fontFamily=Helvetica;fontStyle=1" parent="WIyWlLk6GJQsqaUBKTNV-1" vertex="1">
          <mxGeometry x="308.0952380952381" y="-1601.3411078717202" width="220.5291005291005" height="139.32944606413994" as="geometry" />
        </mxCell>
        <mxCell id="CaYZFUY7cnY6W1_ikCHt-93" value="ZIP_CODE" style="html=1;overflow=block;blockSpacing=1;whiteSpace=wrap;ellipse;fontSize=30;fontColor=#3a414a;spacing=3.8;strokeColor=#3a414a;strokeOpacity=100;rounded=1;absoluteArcSize=1;arcSize=9;strokeWidth=4;lucidId=WVfUuseRui..;container=0;fontFamily=Helvetica;fontStyle=1" parent="WIyWlLk6GJQsqaUBKTNV-1" vertex="1">
          <mxGeometry x="528.6243386243386" y="-1681.8425655976675" width="220.5291005291005" height="139.32944606413994" as="geometry" />
        </mxCell>
        <mxCell id="CaYZFUY7cnY6W1_ikCHt-94" value="Lname" style="html=1;overflow=block;blockSpacing=1;whiteSpace=wrap;ellipse;fontSize=30;fontColor=#3a414a;spacing=3.8;strokeColor=#3a414a;strokeOpacity=100;rounded=1;absoluteArcSize=1;arcSize=9;strokeWidth=4;lucidId=lWfU_nWbbt9Z;container=0;fontFamily=Helvetica;fontStyle=1" parent="WIyWlLk6GJQsqaUBKTNV-1" vertex="1">
          <mxGeometry x="60" y="-858.2507288629736" width="220.5291005291005" height="139.32944606413994" as="geometry" />
        </mxCell>
        <mxCell id="CaYZFUY7cnY6W1_ikCHt-95" value="Fname" style="html=1;overflow=block;blockSpacing=1;whiteSpace=wrap;ellipse;fontSize=30;fontColor=#3a414a;spacing=3.8;strokeColor=#3a414a;strokeOpacity=100;rounded=1;absoluteArcSize=1;arcSize=9;strokeWidth=4;lucidId=tWfUJXXfWlZt;container=0;fontFamily=Helvetica;fontStyle=1" parent="WIyWlLk6GJQsqaUBKTNV-1" vertex="1">
          <mxGeometry x="115.13227513227514" y="-672.4781341107871" width="220.5291005291005" height="139.32944606413994" as="geometry" />
        </mxCell>
        <mxCell id="CaYZFUY7cnY6W1_ikCHt-96" value="MIname" style="html=1;overflow=block;blockSpacing=1;whiteSpace=wrap;ellipse;fontSize=30;fontColor=#3a414a;spacing=3.8;strokeColor=#3a414a;strokeOpacity=100;rounded=1;absoluteArcSize=1;arcSize=9;strokeWidth=4;lucidId=DWfU4wRoh6Re;container=0;fontFamily=Helvetica;fontStyle=1" parent="WIyWlLk6GJQsqaUBKTNV-1" vertex="1">
          <mxGeometry x="390.7936507936507" y="-649.2565597667635" width="220.5291005291005" height="139.32944606413994" as="geometry" />
        </mxCell>
        <mxCell id="CaYZFUY7cnY6W1_ikCHt-97" value="" style="html=1;jettySize=18;whiteSpace=wrap;fontSize=30;strokeColor=#3a414a;strokeOpacity=100;strokeWidth=4;rounded=0;startArrow=none;endArrow=none;exitX=0.977;exitY=0.341;exitPerimeter=0;entryX=0.023;entryY=0.659;entryPerimeter=0;lucidId=VWfUiandby88;fontFamily=Helvetica;fontStyle=1" parent="WIyWlLk6GJQsqaUBKTNV-1" source="CaYZFUY7cnY6W1_ikCHt-94" target="CaYZFUY7cnY6W1_ikCHt-91" edge="1">
          <mxGeometry width="100" height="100" relative="1" as="geometry">
            <Array as="points" />
          </mxGeometry>
        </mxCell>
        <mxCell id="CaYZFUY7cnY6W1_ikCHt-98" value="" style="html=1;jettySize=18;whiteSpace=wrap;fontSize=30;strokeColor=#3a414a;strokeOpacity=100;strokeWidth=4;rounded=0;startArrow=none;endArrow=none;exitX=0.784;exitY=0.084;exitPerimeter=0;entryX=0.216;entryY=0.916;entryPerimeter=0;lucidId=8WfUpV~ylW-B;fontFamily=Helvetica;fontStyle=1" parent="WIyWlLk6GJQsqaUBKTNV-1" source="CaYZFUY7cnY6W1_ikCHt-95" target="CaYZFUY7cnY6W1_ikCHt-91" edge="1">
          <mxGeometry width="100" height="100" relative="1" as="geometry">
            <Array as="points" />
          </mxGeometry>
        </mxCell>
        <mxCell id="CaYZFUY7cnY6W1_ikCHt-99" value="" style="html=1;jettySize=18;whiteSpace=wrap;fontSize=30;strokeColor=#3a414a;strokeOpacity=100;strokeWidth=4;rounded=1;arcSize=12;edgeStyle=orthogonalEdgeStyle;startArrow=none;endArrow=none;exitX=0.5;exitY=-0.004;exitPerimeter=0;entryX=0.5;entryY=1.004;entryPerimeter=0;lucidId=bXfUOT_04ph~;fontFamily=Helvetica;fontStyle=1" parent="WIyWlLk6GJQsqaUBKTNV-1" source="CaYZFUY7cnY6W1_ikCHt-96" target="CaYZFUY7cnY6W1_ikCHt-91" edge="1">
          <mxGeometry width="100" height="100" relative="1" as="geometry">
            <Array as="points" />
          </mxGeometry>
        </mxCell>
        <mxCell id="CaYZFUY7cnY6W1_ikCHt-100" value="" style="html=1;jettySize=18;whiteSpace=wrap;fontSize=30;strokeColor=#3a414a;strokeOpacity=100;strokeWidth=4;rounded=0;startArrow=none;endArrow=none;exitX=1.003;exitY=0.5;exitPerimeter=0;entryX=-0.003;entryY=0.83;entryPerimeter=0;lucidId=vXfUN436lNYY;fontFamily=Helvetica;fontStyle=1" parent="WIyWlLk6GJQsqaUBKTNV-1" source="CaYZFUY7cnY6W1_ikCHt-91" target="CaYZFUY7cnY6W1_ikCHt-83" edge="1">
          <mxGeometry width="100" height="100" relative="1" as="geometry">
            <Array as="points" />
          </mxGeometry>
        </mxCell>
        <mxCell id="CaYZFUY7cnY6W1_ikCHt-101" value="" style="html=1;jettySize=18;whiteSpace=wrap;fontSize=30;strokeColor=#3a414a;strokeOpacity=100;strokeWidth=4;rounded=0;startArrow=none;endArrow=none;exitX=0.999;exitY=0.437;exitPerimeter=0;entryX=-0.003;entryY=0.564;entryPerimeter=0;lucidId=AXfUO9j~MnNt;fontFamily=Helvetica;fontStyle=1" parent="WIyWlLk6GJQsqaUBKTNV-1" source="CaYZFUY7cnY6W1_ikCHt-87" target="CaYZFUY7cnY6W1_ikCHt-83" edge="1">
          <mxGeometry width="100" height="100" relative="1" as="geometry">
            <Array as="points" />
          </mxGeometry>
        </mxCell>
        <mxCell id="CaYZFUY7cnY6W1_ikCHt-102" value="" style="html=1;jettySize=18;whiteSpace=wrap;fontSize=30;strokeColor=#3a414a;strokeOpacity=100;strokeWidth=4;rounded=0;startArrow=none;endArrow=none;exitX=1.003;exitY=0.5;exitPerimeter=0;entryX=-0.003;entryY=0.148;entryPerimeter=0;lucidId=JXfUxvO~LMSW;fontFamily=Helvetica;fontStyle=1" parent="WIyWlLk6GJQsqaUBKTNV-1" source="CaYZFUY7cnY6W1_ikCHt-88" target="CaYZFUY7cnY6W1_ikCHt-83" edge="1">
          <mxGeometry width="100" height="100" relative="1" as="geometry">
            <Array as="points" />
          </mxGeometry>
        </mxCell>
        <mxCell id="CaYZFUY7cnY6W1_ikCHt-103" value="" style="html=1;jettySize=18;whiteSpace=wrap;fontSize=30;strokeColor=#3a414a;strokeOpacity=100;strokeWidth=4;rounded=0;startArrow=none;endArrow=none;exitX=0.963;exitY=0.697;exitPerimeter=0;entryX=0.156;entryY=-0.004;entryPerimeter=0;lucidId=PXfUNPCwFw9~;fontFamily=Helvetica;fontStyle=1" parent="WIyWlLk6GJQsqaUBKTNV-1" source="CaYZFUY7cnY6W1_ikCHt-89" target="CaYZFUY7cnY6W1_ikCHt-83" edge="1">
          <mxGeometry width="100" height="100" relative="1" as="geometry">
            <Array as="points" />
          </mxGeometry>
        </mxCell>
        <mxCell id="CaYZFUY7cnY6W1_ikCHt-104" value="" style="html=1;jettySize=18;whiteSpace=wrap;fontSize=30;strokeColor=#3a414a;strokeOpacity=100;strokeWidth=4;rounded=0;startArrow=none;endArrow=none;exitX=0.5;exitY=1.004;exitPerimeter=0;entryX=0.494;entryY=-0.004;entryPerimeter=0;lucidId=SXfUVCStKXkX;fontFamily=Helvetica;fontStyle=1" parent="WIyWlLk6GJQsqaUBKTNV-1" source="CaYZFUY7cnY6W1_ikCHt-90" target="CaYZFUY7cnY6W1_ikCHt-83" edge="1">
          <mxGeometry width="100" height="100" relative="1" as="geometry">
            <Array as="points" />
          </mxGeometry>
        </mxCell>
        <mxCell id="CaYZFUY7cnY6W1_ikCHt-105" value="" style="html=1;jettySize=18;whiteSpace=wrap;fontSize=30;strokeColor=#3a414a;strokeOpacity=100;strokeWidth=4;rounded=0;startArrow=none;endArrow=none;exitX=0.919;exitY=0.779;exitPerimeter=0;entryX=0.043;entryY=0.289;entryPerimeter=0;lucidId=YXfU6EgUX91e;fontFamily=Helvetica;fontStyle=1" parent="WIyWlLk6GJQsqaUBKTNV-1" source="CaYZFUY7cnY6W1_ikCHt-92" target="CaYZFUY7cnY6W1_ikCHt-90" edge="1">
          <mxGeometry width="100" height="100" relative="1" as="geometry">
            <Array as="points" />
          </mxGeometry>
        </mxCell>
        <mxCell id="CaYZFUY7cnY6W1_ikCHt-106" value="" style="html=1;jettySize=18;whiteSpace=wrap;fontSize=30;strokeColor=#3a414a;strokeOpacity=100;strokeWidth=4;rounded=0;startArrow=none;endArrow=none;exitX=0.5;exitY=1.004;exitPerimeter=0;entryX=0.275;entryY=0.049;entryPerimeter=0;lucidId=2XfUz3gdMXMw;fontFamily=Helvetica;fontStyle=1" parent="WIyWlLk6GJQsqaUBKTNV-1" source="CaYZFUY7cnY6W1_ikCHt-93" target="CaYZFUY7cnY6W1_ikCHt-90" edge="1">
          <mxGeometry width="100" height="100" relative="1" as="geometry">
            <Array as="points" />
          </mxGeometry>
        </mxCell>
        <mxCell id="CaYZFUY7cnY6W1_ikCHt-107" value="has_a" style="html=1;overflow=block;blockSpacing=1;whiteSpace=wrap;shape=rhombus;fontSize=30;fontColor=#3a414a;spacing=3.8;strokeColor=#3a414a;strokeOpacity=100;rounded=1;absoluteArcSize=1;arcSize=9;strokeWidth=4;lucidId=PZfUO9Y-HYLS;container=0;fontFamily=Helvetica;fontStyle=1" parent="WIyWlLk6GJQsqaUBKTNV-1" vertex="1">
          <mxGeometry x="914.5502645502645" y="-835.0291545189502" width="220.5291005291005" height="162.55102040816328" as="geometry" />
        </mxCell>
        <mxCell id="CaYZFUY7cnY6W1_ikCHt-108" value="" style="html=1;jettySize=18;whiteSpace=wrap;fontSize=30;strokeColor=#3a414a;strokeOpacity=100;strokeWidth=4;rounded=0;startArrow=none;endArrow=none;exitX=0.5;exitY=0.013;exitPerimeter=0;entryX=0.5;entryY=1.004;entryPerimeter=0;lucidId=TZfUUe_BtFnL;fontFamily=Helvetica;fontStyle=1" parent="WIyWlLk6GJQsqaUBKTNV-1" source="CaYZFUY7cnY6W1_ikCHt-107" target="CaYZFUY7cnY6W1_ikCHt-83" edge="1">
          <mxGeometry width="100" height="100" relative="1" as="geometry">
            <Array as="points" />
          </mxGeometry>
        </mxCell>
        <mxCell id="CaYZFUY7cnY6W1_ikCHt-109" value="N" style="text;html=1;resizable=0;labelBackgroundColor=default;align=center;verticalAlign=middle;fontStyle=1;fontColor=#333333;fontSize=30;container=0;fontFamily=Helvetica;" parent="CaYZFUY7cnY6W1_ikCHt-108" vertex="1">
          <mxGeometry x="1" relative="1" as="geometry">
            <mxPoint x="-30" y="27" as="offset" />
          </mxGeometry>
        </mxCell>
        <mxCell id="CaYZFUY7cnY6W1_ikCHt-110" value="" style="html=1;jettySize=18;whiteSpace=wrap;fontSize=30;strokeColor=#3a414a;strokeOpacity=100;strokeWidth=4;rounded=1;arcSize=12;edgeStyle=orthogonalEdgeStyle;startArrow=none;endArrow=none;exitX=0.5;exitY=0.987;exitPerimeter=0;entryX=0.5;entryY=-0.004;entryPerimeter=0;lucidId=z0fUq2M3FaTi;fontFamily=Helvetica;fontStyle=1" parent="WIyWlLk6GJQsqaUBKTNV-1" source="CaYZFUY7cnY6W1_ikCHt-107" target="CaYZFUY7cnY6W1_ikCHt-112" edge="1">
          <mxGeometry width="100" height="100" relative="1" as="geometry">
            <Array as="points" />
          </mxGeometry>
        </mxCell>
        <mxCell id="CaYZFUY7cnY6W1_ikCHt-111" value="1" style="text;html=1;resizable=0;labelBackgroundColor=default;align=center;verticalAlign=middle;fontStyle=1;fontColor=#333333;fontSize=30;container=0;fontFamily=Helvetica;" parent="CaYZFUY7cnY6W1_ikCHt-110" vertex="1">
          <mxGeometry x="0.8228663225151815" relative="1" as="geometry">
            <mxPoint x="15" y="-3" as="offset" />
          </mxGeometry>
        </mxCell>
        <mxCell id="CaYZFUY7cnY6W1_ikCHt-230" value="1" style="text;html=1;resizable=0;labelBackgroundColor=default;align=center;verticalAlign=middle;fontStyle=1;fontColor=#333333;fontSize=30;container=0;fontFamily=Helvetica;" parent="CaYZFUY7cnY6W1_ikCHt-110" vertex="1">
          <mxGeometry x="0.8228663225151815" relative="1" as="geometry">
            <mxPoint x="65" y="87" as="offset" />
          </mxGeometry>
        </mxCell>
        <mxCell id="CaYZFUY7cnY6W1_ikCHt-231" value="1" style="text;html=1;resizable=0;labelBackgroundColor=default;align=center;verticalAlign=middle;fontStyle=1;fontColor=#333333;fontSize=30;container=0;fontFamily=Helvetica;" parent="CaYZFUY7cnY6W1_ikCHt-110" vertex="1">
          <mxGeometry x="0.8228663225151815" relative="1" as="geometry">
            <mxPoint x="115" y="1622" as="offset" />
          </mxGeometry>
        </mxCell>
        <mxCell id="CaYZFUY7cnY6W1_ikCHt-302" value="1" style="text;html=1;resizable=0;labelBackgroundColor=default;align=center;verticalAlign=middle;fontStyle=1;fontColor=#333333;fontSize=30;container=0;fontFamily=Helvetica;" parent="CaYZFUY7cnY6W1_ikCHt-110" vertex="1">
          <mxGeometry x="0.8228663225151815" relative="1" as="geometry">
            <mxPoint x="125" y="23" as="offset" />
          </mxGeometry>
        </mxCell>
        <mxCell id="CaYZFUY7cnY6W1_ikCHt-304" value="1" style="text;html=1;resizable=0;labelBackgroundColor=default;align=center;verticalAlign=middle;fontStyle=1;fontColor=#333333;fontSize=30;container=0;fontFamily=Helvetica;" parent="CaYZFUY7cnY6W1_ikCHt-110" vertex="1">
          <mxGeometry x="0.8228663225151815" relative="1" as="geometry">
            <mxPoint x="1155" y="-152" as="offset" />
          </mxGeometry>
        </mxCell>
        <mxCell id="CaYZFUY7cnY6W1_ikCHt-305" value="1" style="text;html=1;resizable=0;labelBackgroundColor=default;align=center;verticalAlign=middle;fontStyle=1;fontColor=#333333;fontSize=30;container=0;fontFamily=Helvetica;" parent="CaYZFUY7cnY6W1_ikCHt-110" vertex="1">
          <mxGeometry x="0.8228663225151815" relative="1" as="geometry">
            <mxPoint x="1855" y="-177" as="offset" />
          </mxGeometry>
        </mxCell>
        <mxCell id="CaYZFUY7cnY6W1_ikCHt-339" value="1" style="text;html=1;resizable=0;labelBackgroundColor=default;align=center;verticalAlign=middle;fontStyle=1;fontColor=#333333;fontSize=30;container=0;fontFamily=Helvetica;" parent="CaYZFUY7cnY6W1_ikCHt-110" vertex="1">
          <mxGeometry x="0.8228663225151815" relative="1" as="geometry">
            <mxPoint x="65" y="67" as="offset" />
          </mxGeometry>
        </mxCell>
        <mxCell id="CaYZFUY7cnY6W1_ikCHt-817" value="1" style="text;html=1;resizable=0;labelBackgroundColor=default;align=center;verticalAlign=middle;fontStyle=1;fontColor=#333333;fontSize=30;container=0;fontFamily=Helvetica;" parent="CaYZFUY7cnY6W1_ikCHt-110" vertex="1">
          <mxGeometry x="0.8228663225151815" relative="1" as="geometry">
            <mxPoint x="125" y="93" as="offset" />
          </mxGeometry>
        </mxCell>
        <mxCell id="CaYZFUY7cnY6W1_ikCHt-818" value="1" style="text;html=1;resizable=0;labelBackgroundColor=default;align=center;verticalAlign=middle;fontStyle=1;fontColor=#333333;fontSize=30;container=0;fontFamily=Helvetica;" parent="CaYZFUY7cnY6W1_ikCHt-110" vertex="1">
          <mxGeometry x="0.8228663225151815" relative="1" as="geometry">
            <mxPoint x="125" y="153" as="offset" />
          </mxGeometry>
        </mxCell>
        <mxCell id="CaYZFUY7cnY6W1_ikCHt-819" value="1" style="text;html=1;resizable=0;labelBackgroundColor=default;align=center;verticalAlign=middle;fontStyle=1;fontColor=#333333;fontSize=30;container=0;fontFamily=Helvetica;" parent="CaYZFUY7cnY6W1_ikCHt-110" vertex="1">
          <mxGeometry x="0.8228663225151815" relative="1" as="geometry">
            <mxPoint x="65" y="27" as="offset" />
          </mxGeometry>
        </mxCell>
        <mxCell id="wvT5fDZXquklgUt5dEYW-264" value="1" style="text;html=1;resizable=0;labelBackgroundColor=default;align=center;verticalAlign=middle;fontStyle=1;fontColor=#333333;fontSize=30;container=0;fontFamily=Helvetica;" vertex="1" parent="CaYZFUY7cnY6W1_ikCHt-110">
          <mxGeometry x="0.8228663225151815" relative="1" as="geometry">
            <mxPoint x="1870" y="-327" as="offset" />
          </mxGeometry>
        </mxCell>
        <mxCell id="wvT5fDZXquklgUt5dEYW-265" value="1" style="text;html=1;resizable=0;labelBackgroundColor=default;align=center;verticalAlign=middle;fontStyle=1;fontColor=#333333;fontSize=30;container=0;fontFamily=Helvetica;" vertex="1" parent="CaYZFUY7cnY6W1_ikCHt-110">
          <mxGeometry x="0.8228663225151815" relative="1" as="geometry">
            <mxPoint x="2120" y="-218" as="offset" />
          </mxGeometry>
        </mxCell>
        <mxCell id="wvT5fDZXquklgUt5dEYW-267" value="1" style="text;html=1;resizable=0;labelBackgroundColor=default;align=center;verticalAlign=middle;fontStyle=1;fontColor=#333333;fontSize=30;container=0;fontFamily=Helvetica;" vertex="1" parent="CaYZFUY7cnY6W1_ikCHt-110">
          <mxGeometry x="0.8228663225151815" relative="1" as="geometry">
            <mxPoint x="2795" y="-157" as="offset" />
          </mxGeometry>
        </mxCell>
        <mxCell id="CaYZFUY7cnY6W1_ikCHt-112" value="&lt;span style=&quot;font-size: 23px;&quot;&gt;UAT_DASHBOARD&lt;/span&gt;" style="html=1;overflow=block;blockSpacing=1;whiteSpace=wrap;fontSize=23;fontColor=#3a414a;spacing=9;strokeColor=#3a414a;strokeOpacity=100;rounded=1;absoluteArcSize=1;arcSize=9;strokeWidth=4;lucidId=B0fU5qMxlWzK;container=0;fontFamily=Helvetica;fontStyle=1" parent="WIyWlLk6GJQsqaUBKTNV-1" vertex="1">
          <mxGeometry x="914.5502645502645" y="-463.48396501457705" width="220.5291005291005" height="139.32944606413994" as="geometry" />
        </mxCell>
        <mxCell id="CaYZFUY7cnY6W1_ikCHt-113" value="&lt;font style=&quot;font-size: 20px;&quot;&gt;&lt;u style=&quot;font-size: 20px;&quot;&gt;&lt;span style=&quot;font-size: 20px;&quot;&gt;UAT_DASHBOARD_ID&lt;/span&gt;&lt;/u&gt;&lt;/font&gt;" style="html=1;overflow=block;blockSpacing=1;whiteSpace=wrap;ellipse;fontSize=20;fontColor=#3a414a;spacing=3.8;strokeColor=#3a414a;strokeOpacity=100;rounded=1;absoluteArcSize=1;arcSize=9;strokeWidth=4;lucidId=T1fUk1-gZSQ-;container=0;fontFamily=Helvetica;fontStyle=1" parent="WIyWlLk6GJQsqaUBKTNV-1" vertex="1">
          <mxGeometry x="390.7936507936507" y="-239.00874635568493" width="220.5291005291005" height="139.32944606413994" as="geometry" />
        </mxCell>
        <mxCell id="CaYZFUY7cnY6W1_ikCHt-114" value="PSCPageID" style="html=1;overflow=block;blockSpacing=1;whiteSpace=wrap;ellipse;fontSize=30;fontFamily=Helvetica;fontColor=#374151;spacing=3.8;strokeColor=#3a414a;strokeOpacity=100;rounded=1;absoluteArcSize=1;arcSize=9;strokeWidth=4;lucidId=w2fU~CYwQ9xX;container=0;fontStyle=1" parent="WIyWlLk6GJQsqaUBKTNV-1" vertex="1">
          <mxGeometry x="528.6243386243386" y="-99.67930029154513" width="220.5291005291005" height="139.32944606413994" as="geometry" />
        </mxCell>
        <mxCell id="CaYZFUY7cnY6W1_ikCHt-115" value="DSAPageID" style="html=1;overflow=block;blockSpacing=1;whiteSpace=wrap;ellipse;fontSize=30;fontFamily=Helvetica;fontColor=#374151;spacing=3.8;strokeColor=#3a414a;strokeOpacity=100;rounded=1;absoluteArcSize=1;arcSize=9;strokeWidth=4;lucidId=94fUvZBK1pXR;container=0;fontStyle=1" parent="WIyWlLk6GJQsqaUBKTNV-1" vertex="1">
          <mxGeometry x="749.1534391534391" y="-22.27405247813408" width="220.5291005291005" height="139.32944606413994" as="geometry" />
        </mxCell>
        <mxCell id="CaYZFUY7cnY6W1_ikCHt-116" value="ABOUT_US" style="html=1;overflow=block;blockSpacing=1;whiteSpace=wrap;ellipse;fontSize=30;fontFamily=Helvetica;fontColor=#374151;spacing=3.8;strokeColor=#3a414a;strokeOpacity=100;rounded=1;absoluteArcSize=1;arcSize=9;strokeWidth=4;lucidId=I5fUvJz3QDYQ;container=0;fontStyle=1" parent="WIyWlLk6GJQsqaUBKTNV-1" vertex="1">
          <mxGeometry x="997.2486772486772" y="-45.495626822156964" width="220.5291005291005" height="139.32944606413994" as="geometry" />
        </mxCell>
        <mxCell id="CaYZFUY7cnY6W1_ikCHt-117" value="PROV/CITY" style="html=1;overflow=block;blockSpacing=1;whiteSpace=wrap;ellipse;fontSize=30;fontColor=#3a414a;spacing=3.8;strokeColor=#3a414a;strokeOpacity=100;rounded=1;absoluteArcSize=1;arcSize=9;strokeWidth=4;lucidId=O8fUWm7_ulAh;container=0;fontFamily=Helvetica;fontStyle=1" parent="WIyWlLk6GJQsqaUBKTNV-1" vertex="1">
          <mxGeometry x="776.7195767195767" y="-1671.00583090379" width="220.5291005291005" height="139.32944606413994" as="geometry" />
        </mxCell>
        <mxCell id="CaYZFUY7cnY6W1_ikCHt-118" value="" style="html=1;jettySize=18;whiteSpace=wrap;fontSize=30;strokeColor=#3a414a;strokeOpacity=100;strokeWidth=4;rounded=0;startArrow=none;endArrow=none;exitX=0.5;exitY=1.004;exitPerimeter=0;entryX=0.719;entryY=0.046;entryPerimeter=0;lucidId=18fU9-dBik.7;fontFamily=Helvetica;fontStyle=1" parent="WIyWlLk6GJQsqaUBKTNV-1" source="CaYZFUY7cnY6W1_ikCHt-117" target="CaYZFUY7cnY6W1_ikCHt-90" edge="1">
          <mxGeometry width="100" height="100" relative="1" as="geometry">
            <Array as="points" />
          </mxGeometry>
        </mxCell>
        <mxCell id="CaYZFUY7cnY6W1_ikCHt-119" value="" style="html=1;jettySize=18;whiteSpace=wrap;fontSize=30;strokeColor=#3a414a;strokeOpacity=100;strokeWidth=4;rounded=0;startArrow=none;endArrow=none;exitX=0.971;exitY=0.35;exitPerimeter=0;entryX=-0.003;entryY=0.616;entryPerimeter=0;lucidId=G_fU~wgWZsta;exitDx=0;exitDy=0;fontFamily=Helvetica;fontStyle=1" parent="WIyWlLk6GJQsqaUBKTNV-1" source="CaYZFUY7cnY6W1_ikCHt-113" target="CaYZFUY7cnY6W1_ikCHt-112" edge="1">
          <mxGeometry width="100" height="100" relative="1" as="geometry">
            <Array as="points" />
          </mxGeometry>
        </mxCell>
        <mxCell id="CaYZFUY7cnY6W1_ikCHt-120" value="" style="html=1;jettySize=18;whiteSpace=wrap;fontSize=30;strokeColor=#3a414a;strokeOpacity=100;strokeWidth=4;rounded=0;startArrow=none;endArrow=none;exitX=1;exitY=0;entryX=-0.003;entryY=0.944;entryPerimeter=0;lucidId=J_fUcFG6X4xt;exitDx=0;exitDy=0;fontFamily=Helvetica;fontStyle=1" parent="WIyWlLk6GJQsqaUBKTNV-1" source="CaYZFUY7cnY6W1_ikCHt-114" target="CaYZFUY7cnY6W1_ikCHt-112" edge="1">
          <mxGeometry width="100" height="100" relative="1" as="geometry">
            <Array as="points" />
          </mxGeometry>
        </mxCell>
        <mxCell id="CaYZFUY7cnY6W1_ikCHt-121" value="" style="html=1;jettySize=18;whiteSpace=wrap;fontSize=30;strokeColor=#3a414a;strokeOpacity=100;strokeWidth=4;rounded=0;startArrow=none;endArrow=none;exitX=0.749;exitY=0.062;exitPerimeter=0;entryX=0.283;entryY=1.004;entryPerimeter=0;lucidId=O_fUZTlyo_7o;fontFamily=Helvetica;fontStyle=1" parent="WIyWlLk6GJQsqaUBKTNV-1" source="CaYZFUY7cnY6W1_ikCHt-115" target="CaYZFUY7cnY6W1_ikCHt-112" edge="1">
          <mxGeometry width="100" height="100" relative="1" as="geometry">
            <Array as="points" />
          </mxGeometry>
        </mxCell>
        <mxCell id="CaYZFUY7cnY6W1_ikCHt-122" value="" style="html=1;jettySize=18;whiteSpace=wrap;fontSize=30;strokeColor=#3a414a;strokeOpacity=100;strokeWidth=4;rounded=0;startArrow=none;endArrow=none;exitX=0.5;exitY=0;entryX=0.704;entryY=1.004;entryPerimeter=0;lucidId=S_fULtyYCp6r;exitDx=0;exitDy=0;fontFamily=Helvetica;fontStyle=1" parent="WIyWlLk6GJQsqaUBKTNV-1" source="CaYZFUY7cnY6W1_ikCHt-116" target="CaYZFUY7cnY6W1_ikCHt-112" edge="1">
          <mxGeometry width="100" height="100" relative="1" as="geometry">
            <Array as="points" />
          </mxGeometry>
        </mxCell>
        <mxCell id="CaYZFUY7cnY6W1_ikCHt-123" value="has_a" style="html=1;overflow=block;blockSpacing=1;whiteSpace=wrap;shape=rhombus;fontSize=30;fontColor=#3a414a;spacing=3.8;strokeColor=#3a414a;strokeOpacity=100;rounded=1;absoluteArcSize=1;arcSize=9;strokeWidth=4;lucidId=t.fUtBdnUzxN;container=0;fontFamily=Helvetica;fontStyle=1" parent="WIyWlLk6GJQsqaUBKTNV-1" vertex="1">
          <mxGeometry x="1263.721340388007" y="767.2594752186592" width="220.5291005291005" height="162.55102040816328" as="geometry" />
        </mxCell>
        <mxCell id="CaYZFUY7cnY6W1_ikCHt-124" value="" style="html=1;jettySize=18;whiteSpace=wrap;fontSize=30;strokeColor=#3a414a;strokeOpacity=100;strokeWidth=4;rounded=0;startArrow=none;endArrow=none;exitX=0.992;exitY=0.721;exitPerimeter=0;entryX=0.5;entryY=0;lucidId=v.fUUNwZLYP7;edgeStyle=orthogonalEdgeStyle;entryDx=0;entryDy=0;exitDx=0;exitDy=0;fontFamily=Helvetica;fontStyle=1" parent="WIyWlLk6GJQsqaUBKTNV-1" source="CaYZFUY7cnY6W1_ikCHt-112" target="CaYZFUY7cnY6W1_ikCHt-123" edge="1">
          <mxGeometry width="100" height="100" relative="1" as="geometry">
            <Array as="points">
              <mxPoint x="1383.174603174603" y="-362.8571428571429" />
            </Array>
          </mxGeometry>
        </mxCell>
        <mxCell id="CaYZFUY7cnY6W1_ikCHt-125" value="" style="html=1;jettySize=18;whiteSpace=wrap;fontSize=30;strokeColor=#3a414a;strokeOpacity=100;strokeWidth=4;rounded=0;startArrow=none;endArrow=none;exitX=0.491;exitY=0.986;exitPerimeter=0;entryX=0.5;entryY=-0.004;entryPerimeter=0;lucidId=B.fUExvhphwo;fontFamily=Helvetica;fontStyle=1" parent="WIyWlLk6GJQsqaUBKTNV-1" source="CaYZFUY7cnY6W1_ikCHt-123" target="CaYZFUY7cnY6W1_ikCHt-126" edge="1">
          <mxGeometry width="100" height="100" relative="1" as="geometry">
            <Array as="points" />
          </mxGeometry>
        </mxCell>
        <mxCell id="CaYZFUY7cnY6W1_ikCHt-126" value="UAT_PROFILE" style="html=1;overflow=block;blockSpacing=1;whiteSpace=wrap;fontSize=30;fontColor=#3a414a;spacing=9;strokeColor=#3a414a;strokeOpacity=100;rounded=1;absoluteArcSize=1;arcSize=9;strokeWidth=4;lucidId=C.fUB1nWtgO5;container=0;fontFamily=Helvetica;fontStyle=1" parent="WIyWlLk6GJQsqaUBKTNV-1" vertex="1">
          <mxGeometry x="1043.1922398589063" y="1154.2857142857142" width="220.5291005291005" height="139.32944606413994" as="geometry" />
        </mxCell>
        <mxCell id="CaYZFUY7cnY6W1_ikCHt-127" value="ABOUT_ME" style="html=1;overflow=block;blockSpacing=1;whiteSpace=wrap;ellipse;fontSize=30;fontFamily=Helvetica;fontColor=#374151;spacing=3.8;strokeColor=#3a414a;strokeOpacity=100;rounded=1;absoluteArcSize=1;arcSize=9;strokeWidth=4;lucidId=F~fUQMV9hk5v;container=0;fontStyle=1" parent="WIyWlLk6GJQsqaUBKTNV-1" vertex="1">
          <mxGeometry x="637.0511463844797" y="1405.8527696793008" width="220.5291005291005" height="139.32944606413994" as="geometry" />
        </mxCell>
        <mxCell id="CaYZFUY7cnY6W1_ikCHt-203" style="rounded=0;orthogonalLoop=1;jettySize=auto;html=1;exitX=1;exitY=0;exitDx=0;exitDy=0;entryX=0.25;entryY=1;entryDx=0;entryDy=0;endArrow=none;endFill=0;fontSize=30;fontFamily=Helvetica;fontStyle=1;strokeWidth=4;" parent="WIyWlLk6GJQsqaUBKTNV-1" source="CaYZFUY7cnY6W1_ikCHt-128" target="CaYZFUY7cnY6W1_ikCHt-126" edge="1">
          <mxGeometry relative="1" as="geometry" />
        </mxCell>
        <mxCell id="CaYZFUY7cnY6W1_ikCHt-128" value="ADDRESS" style="html=1;overflow=block;blockSpacing=1;whiteSpace=wrap;ellipse;fontSize=30;fontFamily=Helvetica;fontColor=#374151;spacing=3.8;strokeColor=#3a414a;strokeOpacity=100;rounded=1;absoluteArcSize=1;arcSize=9;strokeWidth=4;lucidId=Z~fUO5ShDFOm;container=0;fontStyle=1" parent="WIyWlLk6GJQsqaUBKTNV-1" vertex="1">
          <mxGeometry x="767.5308641975308" y="1568.4037900874637" width="220.5291005291005" height="139.32944606413994" as="geometry" />
        </mxCell>
        <mxCell id="CaYZFUY7cnY6W1_ikCHt-129" value="NAME" style="html=1;overflow=block;blockSpacing=1;whiteSpace=wrap;ellipse;fontSize=30;fontFamily=Helvetica;fontColor=#374151;spacing=3.8;strokeColor=#3a414a;strokeOpacity=100;rounded=1;absoluteArcSize=1;arcSize=9;strokeWidth=4;lucidId=8~fUlbIEcW1Z;container=0;fontStyle=1" parent="WIyWlLk6GJQsqaUBKTNV-1" vertex="1">
          <mxGeometry x="1043.1922398589063" y="1591.625364431487" width="220.5291005291005" height="139.32944606413994" as="geometry" />
        </mxCell>
        <mxCell id="CaYZFUY7cnY6W1_ikCHt-130" value="AGE" style="html=1;overflow=block;blockSpacing=1;whiteSpace=wrap;ellipse;fontSize=30;fontFamily=Helvetica;fontColor=#374151;spacing=3.8;strokeColor=#3a414a;strokeOpacity=100;rounded=1;absoluteArcSize=1;arcSize=9;strokeWidth=4;lucidId=eagUHfTHOve-;container=0;fontStyle=1" parent="WIyWlLk6GJQsqaUBKTNV-1" vertex="1">
          <mxGeometry x="1300.4761904761904" y="1521.9606413994175" width="220.5291005291005" height="139.32944606413994" as="geometry" />
        </mxCell>
        <mxCell id="CaYZFUY7cnY6W1_ikCHt-131" value="FAVORITES" style="html=1;overflow=block;blockSpacing=1;whiteSpace=wrap;ellipse;fontSize=30;fontFamily=Helvetica;fontColor=#374151;spacing=3.8;strokeColor=#3a414a;strokeOpacity=100;rounded=1;absoluteArcSize=1;arcSize=9;strokeWidth=4;lucidId=oagUY4e~x0Zh;container=0;fontStyle=1" parent="WIyWlLk6GJQsqaUBKTNV-1" vertex="1">
          <mxGeometry x="1373.9858906525574" y="1336.1880466472307" width="220.5291005291005" height="139.32944606413994" as="geometry" />
        </mxCell>
        <mxCell id="CaYZFUY7cnY6W1_ikCHt-202" style="rounded=0;orthogonalLoop=1;jettySize=auto;html=1;exitX=1;exitY=0;exitDx=0;exitDy=0;entryX=0;entryY=0.75;entryDx=0;entryDy=0;endArrow=none;endFill=0;fontSize=30;fontFamily=Helvetica;fontStyle=1;strokeWidth=4;" parent="WIyWlLk6GJQsqaUBKTNV-1" source="CaYZFUY7cnY6W1_ikCHt-127" target="CaYZFUY7cnY6W1_ikCHt-126" edge="1">
          <mxGeometry relative="1" as="geometry" />
        </mxCell>
        <mxCell id="CaYZFUY7cnY6W1_ikCHt-204" style="rounded=0;orthogonalLoop=1;jettySize=auto;html=1;exitX=0.5;exitY=0;exitDx=0;exitDy=0;entryX=0.5;entryY=1;entryDx=0;entryDy=0;endArrow=none;endFill=0;fontSize=30;fontFamily=Helvetica;fontStyle=1;strokeWidth=4;" parent="WIyWlLk6GJQsqaUBKTNV-1" source="CaYZFUY7cnY6W1_ikCHt-129" target="CaYZFUY7cnY6W1_ikCHt-126" edge="1">
          <mxGeometry relative="1" as="geometry">
            <mxPoint x="1335.7608465608466" y="756.4227405247816" as="sourcePoint" />
            <mxPoint x="1477.2670194003526" y="457.63848396501453" as="targetPoint" />
          </mxGeometry>
        </mxCell>
        <mxCell id="CaYZFUY7cnY6W1_ikCHt-205" style="rounded=0;orthogonalLoop=1;jettySize=auto;html=1;exitX=0;exitY=0;exitDx=0;exitDy=0;entryX=0.84;entryY=0.99;entryDx=0;entryDy=0;endArrow=none;endFill=0;entryPerimeter=0;fontSize=30;fontFamily=Helvetica;fontStyle=1;strokeWidth=4;" parent="WIyWlLk6GJQsqaUBKTNV-1" source="CaYZFUY7cnY6W1_ikCHt-130" target="CaYZFUY7cnY6W1_ikCHt-126" edge="1">
          <mxGeometry relative="1" as="geometry">
            <mxPoint x="1528.2643738977072" y="713.0758017492712" as="sourcePoint" />
            <mxPoint x="1528.2643738977072" y="411.1953352769683" as="targetPoint" />
          </mxGeometry>
        </mxCell>
        <mxCell id="CaYZFUY7cnY6W1_ikCHt-206" style="rounded=0;orthogonalLoop=1;jettySize=auto;html=1;exitX=0;exitY=0;exitDx=0;exitDy=0;entryX=1;entryY=0.75;entryDx=0;entryDy=0;endArrow=none;endFill=0;fontSize=30;fontFamily=Helvetica;fontStyle=1;strokeWidth=4;" parent="WIyWlLk6GJQsqaUBKTNV-1" source="CaYZFUY7cnY6W1_ikCHt-131" target="CaYZFUY7cnY6W1_ikCHt-126" edge="1">
          <mxGeometry relative="1" as="geometry">
            <mxPoint x="1736.3887125220458" y="618.4865889212833" as="sourcePoint" />
            <mxPoint x="1631.637389770723" y="364.59737609329477" as="targetPoint" />
          </mxGeometry>
        </mxCell>
        <mxCell id="CaYZFUY7cnY6W1_ikCHt-207" value="Lname" style="html=1;overflow=block;blockSpacing=1;whiteSpace=wrap;ellipse;fontSize=30;fontColor=#3a414a;spacing=3.8;strokeColor=#3a414a;strokeOpacity=100;rounded=1;absoluteArcSize=1;arcSize=9;strokeWidth=4;lucidId=lWfU_nWbbt9Z;container=0;fontFamily=Helvetica;fontStyle=1" parent="WIyWlLk6GJQsqaUBKTNV-1" vertex="1">
          <mxGeometry x="776.7195767195767" y="1947.6895043731784" width="220.5291005291005" height="139.32944606413994" as="geometry" />
        </mxCell>
        <mxCell id="CaYZFUY7cnY6W1_ikCHt-209" value="Fname" style="html=1;overflow=block;blockSpacing=1;whiteSpace=wrap;ellipse;fontSize=30;fontColor=#3a414a;spacing=3.8;strokeColor=#3a414a;strokeOpacity=100;rounded=1;absoluteArcSize=1;arcSize=9;strokeWidth=4;lucidId=tWfUJXXfWlZt;container=0;fontFamily=Helvetica;fontStyle=1" parent="WIyWlLk6GJQsqaUBKTNV-1" vertex="1">
          <mxGeometry x="1043.1922398589063" y="1963.1705539358609" width="220.5291005291005" height="139.32944606413994" as="geometry" />
        </mxCell>
        <mxCell id="CaYZFUY7cnY6W1_ikCHt-212" value="MIname" style="html=1;overflow=block;blockSpacing=1;whiteSpace=wrap;ellipse;fontSize=30;fontColor=#3a414a;spacing=3.8;strokeColor=#3a414a;strokeOpacity=100;rounded=1;absoluteArcSize=1;arcSize=9;strokeWidth=4;lucidId=DWfU4wRoh6Re;container=0;fontFamily=Helvetica;fontStyle=1" parent="WIyWlLk6GJQsqaUBKTNV-1" vertex="1">
          <mxGeometry x="1300.4761904761904" y="1932.2084548104958" width="220.5291005291005" height="139.32944606413994" as="geometry" />
        </mxCell>
        <mxCell id="CaYZFUY7cnY6W1_ikCHt-214" style="rounded=0;orthogonalLoop=1;jettySize=auto;html=1;endArrow=none;endFill=0;fontSize=30;fontFamily=Helvetica;fontStyle=1;strokeWidth=4;" parent="WIyWlLk6GJQsqaUBKTNV-1" source="CaYZFUY7cnY6W1_ikCHt-212" target="CaYZFUY7cnY6W1_ikCHt-129" edge="1">
          <mxGeometry relative="1" as="geometry">
            <mxPoint x="1535.7072310405642" y="1251.8163265306125" as="sourcePoint" />
            <mxPoint x="1677.2134038800707" y="953.0320699708459" as="targetPoint" />
          </mxGeometry>
        </mxCell>
        <mxCell id="CaYZFUY7cnY6W1_ikCHt-216" style="rounded=0;orthogonalLoop=1;jettySize=auto;html=1;endArrow=none;endFill=0;fontSize=30;fontFamily=Helvetica;fontStyle=1;strokeWidth=4;" parent="WIyWlLk6GJQsqaUBKTNV-1" source="CaYZFUY7cnY6W1_ikCHt-209" target="CaYZFUY7cnY6W1_ikCHt-129" edge="1">
          <mxGeometry relative="1" as="geometry">
            <mxPoint x="1251.3533333333332" y="1123.4939067055388" as="sourcePoint" />
            <mxPoint x="1282.5949559082892" y="860.3160641399422" as="targetPoint" />
          </mxGeometry>
        </mxCell>
        <mxCell id="CaYZFUY7cnY6W1_ikCHt-218" style="rounded=0;orthogonalLoop=1;jettySize=auto;html=1;endArrow=none;endFill=0;fontSize=30;fontFamily=Helvetica;fontStyle=1;strokeWidth=4;" parent="WIyWlLk6GJQsqaUBKTNV-1" source="CaYZFUY7cnY6W1_ikCHt-207" target="CaYZFUY7cnY6W1_ikCHt-129" edge="1">
          <mxGeometry relative="1" as="geometry">
            <mxPoint x="1094.1528395061728" y="1084.2804081632657" as="sourcePoint" />
            <mxPoint x="1298.1422574955907" y="821.1025655976673" as="targetPoint" />
          </mxGeometry>
        </mxCell>
        <mxCell id="CaYZFUY7cnY6W1_ikCHt-220" value="STREET" style="html=1;overflow=block;blockSpacing=1;whiteSpace=wrap;ellipse;fontSize=30;fontColor=#3a414a;spacing=3.8;strokeColor=#3a414a;strokeOpacity=100;rounded=1;absoluteArcSize=1;arcSize=9;strokeWidth=4;lucidId=OVfU4Ak3pdCx;container=0;fontFamily=Helvetica;fontStyle=1" parent="WIyWlLk6GJQsqaUBKTNV-1" vertex="1">
          <mxGeometry x="142.69841269841268" y="1634.1982507288635" width="220.5291005291005" height="139.32944606413994" as="geometry" />
        </mxCell>
        <mxCell id="CaYZFUY7cnY6W1_ikCHt-221" value="ZIP_CODE" style="html=1;overflow=block;blockSpacing=1;whiteSpace=wrap;ellipse;fontSize=30;fontColor=#3a414a;spacing=3.8;strokeColor=#3a414a;strokeOpacity=100;rounded=1;absoluteArcSize=1;arcSize=9;strokeWidth=4;lucidId=WVfUuseRui..;container=0;fontFamily=Helvetica;fontStyle=1" parent="WIyWlLk6GJQsqaUBKTNV-1" vertex="1">
          <mxGeometry x="216.20811287477954" y="1792.8790087463558" width="220.5291005291005" height="139.32944606413994" as="geometry" />
        </mxCell>
        <mxCell id="CaYZFUY7cnY6W1_ikCHt-222" value="PROV/CITY" style="html=1;overflow=block;blockSpacing=1;whiteSpace=wrap;ellipse;fontSize=30;fontColor=#3a414a;spacing=3.8;strokeColor=#3a414a;strokeOpacity=100;rounded=1;absoluteArcSize=1;arcSize=9;strokeWidth=4;lucidId=O8fUWm7_ulAh;container=0;fontFamily=Helvetica;fontStyle=1" parent="WIyWlLk6GJQsqaUBKTNV-1" vertex="1">
          <mxGeometry x="464.3033509700177" y="1873.3804664723034" width="220.5291005291005" height="139.32944606413994" as="geometry" />
        </mxCell>
        <mxCell id="CaYZFUY7cnY6W1_ikCHt-225" style="rounded=0;orthogonalLoop=1;jettySize=auto;html=1;endArrow=none;endFill=0;fontSize=30;fontFamily=Helvetica;fontStyle=1;strokeWidth=4;" parent="WIyWlLk6GJQsqaUBKTNV-1" source="CaYZFUY7cnY6W1_ikCHt-220" target="CaYZFUY7cnY6W1_ikCHt-128" edge="1">
          <mxGeometry relative="1" as="geometry">
            <mxPoint x="326.4726631393298" y="1707.7332361516037" as="sourcePoint" />
            <mxPoint x="902.4027865961199" y="729.160612244898" as="targetPoint" />
          </mxGeometry>
        </mxCell>
        <mxCell id="CaYZFUY7cnY6W1_ikCHt-226" style="rounded=0;orthogonalLoop=1;jettySize=auto;html=1;endArrow=none;endFill=0;exitX=1;exitY=0;exitDx=0;exitDy=0;fontSize=30;fontFamily=Helvetica;fontStyle=1;strokeWidth=4;" parent="WIyWlLk6GJQsqaUBKTNV-1" source="CaYZFUY7cnY6W1_ikCHt-221" target="CaYZFUY7cnY6W1_ikCHt-128" edge="1">
          <mxGeometry relative="1" as="geometry">
            <mxPoint x="950.1840917107585" y="967.5687755102044" as="sourcePoint" />
            <mxPoint x="950.1840917107585" y="735.353032069971" as="targetPoint" />
          </mxGeometry>
        </mxCell>
        <mxCell id="CaYZFUY7cnY6W1_ikCHt-227" style="rounded=0;orthogonalLoop=1;jettySize=auto;html=1;endArrow=none;endFill=0;fontSize=30;fontFamily=Helvetica;fontStyle=1;strokeWidth=4;" parent="WIyWlLk6GJQsqaUBKTNV-1" source="CaYZFUY7cnY6W1_ikCHt-222" target="CaYZFUY7cnY6W1_ikCHt-128" edge="1">
          <mxGeometry relative="1" as="geometry">
            <mxPoint x="1159.6867372134036" y="942.7990962099125" as="sourcePoint" />
            <mxPoint x="997.9653968253969" y="729.160612244898" as="targetPoint" />
          </mxGeometry>
        </mxCell>
        <mxCell id="CaYZFUY7cnY6W1_ikCHt-235" style="rounded=0;orthogonalLoop=1;jettySize=auto;html=1;entryX=1;entryY=0.5;entryDx=0;entryDy=0;endArrow=none;endFill=0;fontSize=30;fontFamily=Helvetica;fontStyle=1;strokeWidth=4;" parent="WIyWlLk6GJQsqaUBKTNV-1" source="CaYZFUY7cnY6W1_ikCHt-234" target="CaYZFUY7cnY6W1_ikCHt-86" edge="1">
          <mxGeometry relative="1" as="geometry" />
        </mxCell>
        <mxCell id="CaYZFUY7cnY6W1_ikCHt-234" value="has_a" style="html=1;overflow=block;blockSpacing=1;whiteSpace=wrap;shape=rhombus;fontSize=30;fontColor=#3a414a;spacing=3.8;strokeColor=#3a414a;strokeOpacity=100;rounded=1;absoluteArcSize=1;arcSize=9;strokeWidth=4;lucidId=PZfUO9Y-HYLS;container=0;fontFamily=Helvetica;fontStyle=1" parent="WIyWlLk6GJQsqaUBKTNV-1" vertex="1">
          <mxGeometry x="2559.3298059964727" y="-1171.7419825072884" width="220.5291005291005" height="162.55102040816328" as="geometry" />
        </mxCell>
        <mxCell id="CaYZFUY7cnY6W1_ikCHt-236" value="" style="endArrow=none;html=1;rounded=0;entryX=0.5;entryY=1;entryDx=0;entryDy=0;fontSize=30;fontFamily=Helvetica;fontStyle=1;strokeWidth=4;" parent="WIyWlLk6GJQsqaUBKTNV-1" source="CaYZFUY7cnY6W1_ikCHt-246" target="CaYZFUY7cnY6W1_ikCHt-234" edge="1">
          <mxGeometry width="50" height="50" relative="1" as="geometry">
            <mxPoint x="3073.897707231041" y="-1090.466472303207" as="sourcePoint" />
            <mxPoint x="2669.5943562610228" y="-1028.542274052478" as="targetPoint" />
          </mxGeometry>
        </mxCell>
        <mxCell id="CaYZFUY7cnY6W1_ikCHt-241" value="&lt;font style=&quot;font-size: 25px;&quot;&gt;CONTENT_MNG&lt;/font&gt;" style="html=1;overflow=block;blockSpacing=1;whiteSpace=wrap;ellipse;fontSize=25;fontColor=#3a414a;spacing=3.8;strokeColor=#3a414a;strokeOpacity=100;rounded=1;absoluteArcSize=1;arcSize=9;strokeWidth=4;lucidId=DWfU4wRoh6Re;container=0;fontFamily=Helvetica;fontStyle=1" parent="WIyWlLk6GJQsqaUBKTNV-1" vertex="1">
          <mxGeometry x="2834.9911816578483" y="-1113.6880466472303" width="220.5291005291005" height="139.32944606413994" as="geometry" />
        </mxCell>
        <mxCell id="CaYZFUY7cnY6W1_ikCHt-243" value="&lt;font style=&quot;font-size: 30px;&quot;&gt;SETTINGS&lt;/font&gt;" style="html=1;overflow=block;blockSpacing=1;whiteSpace=wrap;ellipse;fontSize=30;fontColor=#3a414a;spacing=3.8;strokeColor=#3a414a;strokeOpacity=100;rounded=1;absoluteArcSize=1;arcSize=9;strokeWidth=4;lucidId=DWfU4wRoh6Re;container=0;fontFamily=Helvetica;fontStyle=1" parent="WIyWlLk6GJQsqaUBKTNV-1" vertex="1">
          <mxGeometry x="354.03880070546734" y="-393.81924198250704" width="220.5291005291005" height="139.32944606413994" as="geometry" />
        </mxCell>
        <mxCell id="CaYZFUY7cnY6W1_ikCHt-245" value="" style="html=1;jettySize=18;whiteSpace=wrap;fontSize=30;strokeColor=#3a414a;strokeOpacity=100;strokeWidth=4;rounded=0;startArrow=none;endArrow=none;exitX=1;exitY=0.5;entryX=0;entryY=0.5;lucidId=G_fU~wgWZsta;exitDx=0;exitDy=0;entryDx=0;entryDy=0;fontFamily=Helvetica;fontStyle=1" parent="WIyWlLk6GJQsqaUBKTNV-1" source="CaYZFUY7cnY6W1_ikCHt-243" target="CaYZFUY7cnY6W1_ikCHt-112" edge="1">
          <mxGeometry width="100" height="100" relative="1" as="geometry">
            <Array as="points" />
            <mxPoint x="587.4320987654321" y="-253.71574344023315" as="sourcePoint" />
            <mxPoint x="896.1728395061727" y="-442.5845481049562" as="targetPoint" />
          </mxGeometry>
        </mxCell>
        <mxCell id="CaYZFUY7cnY6W1_ikCHt-246" value="&lt;font style=&quot;font-size: 30px;&quot;&gt;&lt;span style=&quot;font-size: 30px;&quot;&gt;ADMIN_&lt;br style=&quot;font-size: 30px;&quot;&gt;DASHBOARD&lt;/span&gt;&lt;/font&gt;" style="html=1;overflow=block;blockSpacing=1;whiteSpace=wrap;fontSize=30;fontColor=#3a414a;spacing=9;strokeColor=#3a414a;strokeOpacity=100;rounded=1;absoluteArcSize=1;arcSize=9;strokeWidth=4;lucidId=B0fU5qMxlWzK;container=0;fontFamily=Helvetica;fontStyle=1" parent="WIyWlLk6GJQsqaUBKTNV-1" vertex="1">
          <mxGeometry x="2908.5008818342153" y="-800.1967930029152" width="220.5291005291005" height="139.32944606413994" as="geometry" />
        </mxCell>
        <mxCell id="CaYZFUY7cnY6W1_ikCHt-247" value="&lt;font style=&quot;font-size: 20px;&quot;&gt;&lt;u style=&quot;font-size: 20px;&quot;&gt;&lt;span style=&quot;font-size: 20px;&quot;&gt;ADMIN_DASHBOARD&lt;br style=&quot;font-size: 20px;&quot;&gt;_ID&lt;/span&gt;&lt;/u&gt;&lt;/font&gt;" style="html=1;overflow=block;blockSpacing=1;whiteSpace=wrap;ellipse;fontSize=20;fontColor=#3a414a;spacing=3.8;strokeColor=#3a414a;strokeOpacity=100;rounded=1;absoluteArcSize=1;arcSize=9;strokeWidth=4;lucidId=T1fUk1-gZSQ-;container=0;fontFamily=Helvetica;fontStyle=1" parent="WIyWlLk6GJQsqaUBKTNV-1" vertex="1">
          <mxGeometry x="2414.1481481481483" y="-742.1428571428571" width="220.5291005291005" height="139.32944606413994" as="geometry" />
        </mxCell>
        <mxCell id="CaYZFUY7cnY6W1_ikCHt-248" value="PSCPageID" style="html=1;overflow=block;blockSpacing=1;whiteSpace=wrap;ellipse;fontSize=30;fontFamily=Helvetica;fontColor=#374151;spacing=3.8;strokeColor=#3a414a;strokeOpacity=100;rounded=1;absoluteArcSize=1;arcSize=9;strokeWidth=4;lucidId=w2fU~CYwQ9xX;container=0;fontStyle=1" parent="WIyWlLk6GJQsqaUBKTNV-1" vertex="1">
          <mxGeometry x="2568.5185185185182" y="-471.2244897959181" width="220.5291005291005" height="139.32944606413994" as="geometry" />
        </mxCell>
        <mxCell id="CaYZFUY7cnY6W1_ikCHt-249" value="DSAPageID" style="html=1;overflow=block;blockSpacing=1;whiteSpace=wrap;ellipse;fontSize=30;fontFamily=Helvetica;fontColor=#374151;spacing=3.8;strokeColor=#3a414a;strokeOpacity=100;rounded=1;absoluteArcSize=1;arcSize=9;strokeWidth=4;lucidId=94fUvZBK1pXR;container=0;fontStyle=1" parent="WIyWlLk6GJQsqaUBKTNV-1" vertex="1">
          <mxGeometry x="2789.0476190476193" y="-393.81924198250704" width="220.5291005291005" height="139.32944606413994" as="geometry" />
        </mxCell>
        <mxCell id="CaYZFUY7cnY6W1_ikCHt-250" value="ABOUT_US" style="html=1;overflow=block;blockSpacing=1;whiteSpace=wrap;ellipse;fontSize=30;fontFamily=Helvetica;fontColor=#374151;spacing=3.8;strokeColor=#3a414a;strokeOpacity=100;rounded=1;absoluteArcSize=1;arcSize=9;strokeWidth=4;lucidId=I5fUvJz3QDYQ;container=0;fontStyle=1" parent="WIyWlLk6GJQsqaUBKTNV-1" vertex="1">
          <mxGeometry x="3037.1428571428573" y="-417.0408163265306" width="220.5291005291005" height="139.32944606413994" as="geometry" />
        </mxCell>
        <mxCell id="CaYZFUY7cnY6W1_ikCHt-251" value="" style="html=1;jettySize=18;whiteSpace=wrap;fontSize=30;strokeColor=#3a414a;strokeOpacity=100;strokeWidth=4;rounded=0;startArrow=none;endArrow=none;exitX=0.971;exitY=0.35;exitPerimeter=0;entryX=-0.003;entryY=0.616;entryPerimeter=0;lucidId=G_fU~wgWZsta;exitDx=0;exitDy=0;fontFamily=Helvetica;fontStyle=1" parent="WIyWlLk6GJQsqaUBKTNV-1" source="CaYZFUY7cnY6W1_ikCHt-247" target="CaYZFUY7cnY6W1_ikCHt-246" edge="1">
          <mxGeometry width="100" height="100" relative="1" as="geometry">
            <Array as="points" />
          </mxGeometry>
        </mxCell>
        <mxCell id="CaYZFUY7cnY6W1_ikCHt-252" value="" style="html=1;jettySize=18;whiteSpace=wrap;fontSize=30;strokeColor=#3a414a;strokeOpacity=100;strokeWidth=4;rounded=0;startArrow=none;endArrow=none;exitX=1;exitY=0;entryX=-0.003;entryY=0.944;entryPerimeter=0;lucidId=J_fUcFG6X4xt;exitDx=0;exitDy=0;fontFamily=Helvetica;fontStyle=1" parent="WIyWlLk6GJQsqaUBKTNV-1" source="CaYZFUY7cnY6W1_ikCHt-248" target="CaYZFUY7cnY6W1_ikCHt-246" edge="1">
          <mxGeometry width="100" height="100" relative="1" as="geometry">
            <Array as="points" />
          </mxGeometry>
        </mxCell>
        <mxCell id="CaYZFUY7cnY6W1_ikCHt-253" value="" style="html=1;jettySize=18;whiteSpace=wrap;fontSize=30;strokeColor=#3a414a;strokeOpacity=100;strokeWidth=4;rounded=0;startArrow=none;endArrow=none;exitX=0.749;exitY=0.062;exitPerimeter=0;entryX=0.283;entryY=1.004;entryPerimeter=0;lucidId=O_fUZTlyo_7o;fontFamily=Helvetica;fontStyle=1" parent="WIyWlLk6GJQsqaUBKTNV-1" source="CaYZFUY7cnY6W1_ikCHt-249" target="CaYZFUY7cnY6W1_ikCHt-246" edge="1">
          <mxGeometry width="100" height="100" relative="1" as="geometry">
            <Array as="points" />
          </mxGeometry>
        </mxCell>
        <mxCell id="CaYZFUY7cnY6W1_ikCHt-254" value="" style="html=1;jettySize=18;whiteSpace=wrap;fontSize=30;strokeColor=#3a414a;strokeOpacity=100;strokeWidth=4;rounded=0;startArrow=none;endArrow=none;exitX=0.5;exitY=0;entryX=0.704;entryY=1.004;entryPerimeter=0;lucidId=S_fULtyYCp6r;exitDx=0;exitDy=0;fontFamily=Helvetica;fontStyle=1" parent="WIyWlLk6GJQsqaUBKTNV-1" source="CaYZFUY7cnY6W1_ikCHt-250" target="CaYZFUY7cnY6W1_ikCHt-246" edge="1">
          <mxGeometry width="100" height="100" relative="1" as="geometry">
            <Array as="points" />
          </mxGeometry>
        </mxCell>
        <mxCell id="CaYZFUY7cnY6W1_ikCHt-255" value="has_a" style="html=1;overflow=block;blockSpacing=1;whiteSpace=wrap;shape=rhombus;fontSize=30;fontColor=#3a414a;spacing=3.8;strokeColor=#3a414a;strokeOpacity=100;rounded=1;absoluteArcSize=1;arcSize=9;strokeWidth=4;lucidId=t.fUtBdnUzxN;container=0;fontFamily=Helvetica;fontStyle=1" parent="WIyWlLk6GJQsqaUBKTNV-1" vertex="1">
          <mxGeometry x="3395.502645502646" y="-811.8075801749271" width="220.5291005291005" height="162.55102040816328" as="geometry" />
        </mxCell>
        <mxCell id="CaYZFUY7cnY6W1_ikCHt-256" value="" style="html=1;jettySize=18;whiteSpace=wrap;fontSize=30;strokeColor=#3a414a;strokeOpacity=100;strokeWidth=4;rounded=0;startArrow=none;endArrow=none;exitX=1.003;exitY=0.5;exitPerimeter=0;entryX=0.014;entryY=0.5;entryPerimeter=0;lucidId=v.fUUNwZLYP7;fontFamily=Helvetica;fontStyle=1" parent="WIyWlLk6GJQsqaUBKTNV-1" source="CaYZFUY7cnY6W1_ikCHt-246" target="CaYZFUY7cnY6W1_ikCHt-255" edge="1">
          <mxGeometry width="100" height="100" relative="1" as="geometry">
            <Array as="points" />
          </mxGeometry>
        </mxCell>
        <mxCell id="CaYZFUY7cnY6W1_ikCHt-257" value="" style="html=1;jettySize=18;whiteSpace=wrap;fontSize=30;strokeColor=#3a414a;strokeOpacity=100;strokeWidth=4;rounded=0;startArrow=none;endArrow=none;exitX=1;exitY=0.5;entryX=0;entryY=0;lucidId=B.fUExvhphwo;exitDx=0;exitDy=0;entryDx=0;entryDy=0;fontFamily=Helvetica;fontStyle=1" parent="WIyWlLk6GJQsqaUBKTNV-1" source="CaYZFUY7cnY6W1_ikCHt-255" target="CaYZFUY7cnY6W1_ikCHt-258" edge="1">
          <mxGeometry width="100" height="100" relative="1" as="geometry">
            <Array as="points" />
          </mxGeometry>
        </mxCell>
        <mxCell id="CaYZFUY7cnY6W1_ikCHt-258" value="&lt;font style=&quot;font-size: 25px;&quot;&gt;ADMIN_PROFILE&lt;/font&gt;" style="html=1;overflow=block;blockSpacing=1;whiteSpace=wrap;fontSize=25;fontColor=#3a414a;spacing=9;strokeColor=#3a414a;strokeOpacity=100;rounded=1;absoluteArcSize=1;arcSize=9;strokeWidth=4;lucidId=C.fUB1nWtgO5;container=0;fontFamily=Helvetica;fontStyle=1" parent="WIyWlLk6GJQsqaUBKTNV-1" vertex="1">
          <mxGeometry x="3845.749559082892" y="-649.2565597667635" width="220.5291005291005" height="139.32944606413994" as="geometry" />
        </mxCell>
        <mxCell id="CaYZFUY7cnY6W1_ikCHt-259" value="RCNAME" style="html=1;overflow=block;blockSpacing=1;whiteSpace=wrap;ellipse;fontSize=30;fontFamily=Helvetica;fontColor=#374151;spacing=3.8;strokeColor=#3a414a;strokeOpacity=100;rounded=1;absoluteArcSize=1;arcSize=9;strokeWidth=4;lucidId=F~fUQMV9hk5v;container=0;fontStyle=1" parent="WIyWlLk6GJQsqaUBKTNV-1" vertex="1">
          <mxGeometry x="3661.975308641975" y="-239.00874635568493" width="220.5291005291005" height="139.32944606413994" as="geometry" />
        </mxCell>
        <mxCell id="CaYZFUY7cnY6W1_ikCHt-260" style="rounded=0;orthogonalLoop=1;jettySize=auto;html=1;exitX=0.5;exitY=0;exitDx=0;exitDy=0;entryX=0.5;entryY=1;entryDx=0;entryDy=0;endArrow=none;endFill=0;fontSize=30;fontFamily=Helvetica;fontStyle=1;strokeWidth=4;" parent="WIyWlLk6GJQsqaUBKTNV-1" source="CaYZFUY7cnY6W1_ikCHt-261" target="CaYZFUY7cnY6W1_ikCHt-258" edge="1">
          <mxGeometry relative="1" as="geometry" />
        </mxCell>
        <mxCell id="CaYZFUY7cnY6W1_ikCHt-261" value="ADDRESS" style="html=1;overflow=block;blockSpacing=1;whiteSpace=wrap;ellipse;fontSize=30;fontFamily=Helvetica;fontColor=#374151;spacing=3.8;strokeColor=#3a414a;strokeOpacity=100;rounded=1;absoluteArcSize=1;arcSize=9;strokeWidth=4;lucidId=Z~fUO5ShDFOm;container=0;fontStyle=1" parent="WIyWlLk6GJQsqaUBKTNV-1" vertex="1">
          <mxGeometry x="3956.014109347443" y="-223.52769679300263" width="220.5291005291005" height="139.32944606413994" as="geometry" />
        </mxCell>
        <mxCell id="CaYZFUY7cnY6W1_ikCHt-262" value="NAME" style="html=1;overflow=block;blockSpacing=1;whiteSpace=wrap;ellipse;fontSize=30;fontFamily=Helvetica;fontColor=#374151;spacing=3.8;strokeColor=#3a414a;strokeOpacity=100;rounded=1;absoluteArcSize=1;arcSize=9;strokeWidth=4;lucidId=8~fUlbIEcW1Z;container=0;fontStyle=1" parent="WIyWlLk6GJQsqaUBKTNV-1" vertex="1">
          <mxGeometry x="4231.675485008818" y="-417.0408163265306" width="220.5291005291005" height="139.32944606413994" as="geometry" />
        </mxCell>
        <mxCell id="CaYZFUY7cnY6W1_ikCHt-263" value="AGE" style="html=1;overflow=block;blockSpacing=1;whiteSpace=wrap;ellipse;fontSize=30;fontFamily=Helvetica;fontColor=#374151;spacing=3.8;strokeColor=#3a414a;strokeOpacity=100;rounded=1;absoluteArcSize=1;arcSize=9;strokeWidth=4;lucidId=eagUHfTHOve-;container=0;fontStyle=1" parent="WIyWlLk6GJQsqaUBKTNV-1" vertex="1">
          <mxGeometry x="4397.072310405644" y="-602.8134110787171" width="220.5291005291005" height="139.32944606413994" as="geometry" />
        </mxCell>
        <mxCell id="CaYZFUY7cnY6W1_ikCHt-265" style="rounded=0;orthogonalLoop=1;jettySize=auto;html=1;exitX=0.5;exitY=0;exitDx=0;exitDy=0;entryX=0.25;entryY=1;entryDx=0;entryDy=0;endArrow=none;endFill=0;fontSize=30;fontFamily=Helvetica;fontStyle=1;strokeWidth=4;" parent="WIyWlLk6GJQsqaUBKTNV-1" source="CaYZFUY7cnY6W1_ikCHt-259" target="CaYZFUY7cnY6W1_ikCHt-258" edge="1">
          <mxGeometry relative="1" as="geometry" />
        </mxCell>
        <mxCell id="CaYZFUY7cnY6W1_ikCHt-266" style="rounded=0;orthogonalLoop=1;jettySize=auto;html=1;entryX=0.75;entryY=1;entryDx=0;entryDy=0;endArrow=none;endFill=0;fontSize=30;fontFamily=Helvetica;fontStyle=1;strokeWidth=4;" parent="WIyWlLk6GJQsqaUBKTNV-1" source="CaYZFUY7cnY6W1_ikCHt-262" target="CaYZFUY7cnY6W1_ikCHt-258" edge="1">
          <mxGeometry relative="1" as="geometry">
            <mxPoint x="3421.598589065256" y="44.29446064139961" as="sourcePoint" />
            <mxPoint x="3563.104761904762" y="-254.48979591836724" as="targetPoint" />
          </mxGeometry>
        </mxCell>
        <mxCell id="CaYZFUY7cnY6W1_ikCHt-267" style="rounded=0;orthogonalLoop=1;jettySize=auto;html=1;exitX=0;exitY=0.5;exitDx=0;exitDy=0;entryX=1;entryY=0.75;entryDx=0;entryDy=0;endArrow=none;endFill=0;fontSize=30;fontFamily=Helvetica;fontStyle=1;strokeWidth=4;" parent="WIyWlLk6GJQsqaUBKTNV-1" source="CaYZFUY7cnY6W1_ikCHt-263" target="CaYZFUY7cnY6W1_ikCHt-258" edge="1">
          <mxGeometry relative="1" as="geometry">
            <mxPoint x="3614.1021164021163" y="0.9475218658894846" as="sourcePoint" />
            <mxPoint x="3614.1021164021163" y="-300.9329446064137" as="targetPoint" />
          </mxGeometry>
        </mxCell>
        <mxCell id="CaYZFUY7cnY6W1_ikCHt-269" value="Lname" style="html=1;overflow=block;blockSpacing=1;whiteSpace=wrap;ellipse;fontSize=30;fontColor=#3a414a;spacing=3.8;strokeColor=#3a414a;strokeOpacity=100;rounded=1;absoluteArcSize=1;arcSize=9;strokeWidth=4;lucidId=lWfU_nWbbt9Z;container=0;fontFamily=Helvetica;fontStyle=1" parent="WIyWlLk6GJQsqaUBKTNV-1" vertex="1">
          <mxGeometry x="4268.430335097001" y="-146.1224489795918" width="220.5291005291005" height="139.32944606413994" as="geometry" />
        </mxCell>
        <mxCell id="CaYZFUY7cnY6W1_ikCHt-270" value="Fname" style="html=1;overflow=block;blockSpacing=1;whiteSpace=wrap;ellipse;fontSize=30;fontColor=#3a414a;spacing=3.8;strokeColor=#3a414a;strokeOpacity=100;rounded=1;absoluteArcSize=1;arcSize=9;strokeWidth=4;lucidId=tWfUJXXfWlZt;container=0;fontFamily=Helvetica;fontStyle=1" parent="WIyWlLk6GJQsqaUBKTNV-1" vertex="1">
          <mxGeometry x="4509.174603174603" y="-223.52769679300263" width="220.5291005291005" height="139.32944606413994" as="geometry" />
        </mxCell>
        <mxCell id="CaYZFUY7cnY6W1_ikCHt-271" value="MIname" style="html=1;overflow=block;blockSpacing=1;whiteSpace=wrap;ellipse;fontSize=30;fontColor=#3a414a;spacing=3.8;strokeColor=#3a414a;strokeOpacity=100;rounded=1;absoluteArcSize=1;arcSize=9;strokeWidth=4;lucidId=DWfU4wRoh6Re;container=0;fontFamily=Helvetica;fontStyle=1" parent="WIyWlLk6GJQsqaUBKTNV-1" vertex="1">
          <mxGeometry x="4599.223985890652" y="-393.81924198250704" width="220.5291005291005" height="139.32944606413994" as="geometry" />
        </mxCell>
        <mxCell id="CaYZFUY7cnY6W1_ikCHt-272" style="rounded=0;orthogonalLoop=1;jettySize=auto;html=1;endArrow=none;endFill=0;fontSize=30;fontFamily=Helvetica;fontStyle=1;strokeWidth=4;" parent="WIyWlLk6GJQsqaUBKTNV-1" source="CaYZFUY7cnY6W1_ikCHt-271" target="CaYZFUY7cnY6W1_ikCHt-262" edge="1">
          <mxGeometry relative="1" as="geometry">
            <mxPoint x="3621.5449735449733" y="539.6880466472307" as="sourcePoint" />
            <mxPoint x="3763.0511463844796" y="240.90379008746368" as="targetPoint" />
          </mxGeometry>
        </mxCell>
        <mxCell id="CaYZFUY7cnY6W1_ikCHt-273" style="rounded=0;orthogonalLoop=1;jettySize=auto;html=1;endArrow=none;endFill=0;fontSize=30;fontFamily=Helvetica;fontStyle=1;strokeWidth=4;" parent="WIyWlLk6GJQsqaUBKTNV-1" source="CaYZFUY7cnY6W1_ikCHt-270" target="CaYZFUY7cnY6W1_ikCHt-262" edge="1">
          <mxGeometry relative="1" as="geometry">
            <mxPoint x="3337.1910758377426" y="411.36562682215754" as="sourcePoint" />
            <mxPoint x="3368.4326984126983" y="148.18778425656" as="targetPoint" />
          </mxGeometry>
        </mxCell>
        <mxCell id="CaYZFUY7cnY6W1_ikCHt-274" style="rounded=0;orthogonalLoop=1;jettySize=auto;html=1;endArrow=none;endFill=0;fontSize=30;fontFamily=Helvetica;fontStyle=1;strokeWidth=4;" parent="WIyWlLk6GJQsqaUBKTNV-1" source="CaYZFUY7cnY6W1_ikCHt-269" target="CaYZFUY7cnY6W1_ikCHt-262" edge="1">
          <mxGeometry relative="1" as="geometry">
            <mxPoint x="3179.9905820105823" y="372.1521282798835" as="sourcePoint" />
            <mxPoint x="3383.98" y="108.97428571428577" as="targetPoint" />
          </mxGeometry>
        </mxCell>
        <mxCell id="CaYZFUY7cnY6W1_ikCHt-275" value="STREET" style="html=1;overflow=block;blockSpacing=1;whiteSpace=wrap;ellipse;fontSize=30;fontColor=#3a414a;spacing=3.8;strokeColor=#3a414a;strokeOpacity=100;rounded=1;absoluteArcSize=1;arcSize=9;strokeWidth=4;lucidId=OVfU4Ak3pdCx;container=0;fontFamily=Helvetica;fontStyle=1" parent="WIyWlLk6GJQsqaUBKTNV-1" vertex="1">
          <mxGeometry x="3680.3527336860666" y="-22.27405247813408" width="220.5291005291005" height="139.32944606413994" as="geometry" />
        </mxCell>
        <mxCell id="CaYZFUY7cnY6W1_ikCHt-276" value="ZIP_CODE" style="html=1;overflow=block;blockSpacing=1;whiteSpace=wrap;ellipse;fontSize=30;fontColor=#3a414a;spacing=3.8;strokeColor=#3a414a;strokeOpacity=100;rounded=1;absoluteArcSize=1;arcSize=9;strokeWidth=4;lucidId=WVfUuseRui..;container=0;fontFamily=Helvetica;fontStyle=1" parent="WIyWlLk6GJQsqaUBKTNV-1" vertex="1">
          <mxGeometry x="3864.1269841269836" y="70.61224489795927" width="220.5291005291005" height="139.32944606413994" as="geometry" />
        </mxCell>
        <mxCell id="CaYZFUY7cnY6W1_ikCHt-277" value="PROV/CITY" style="html=1;overflow=block;blockSpacing=1;whiteSpace=wrap;ellipse;fontSize=30;fontColor=#3a414a;spacing=3.8;strokeColor=#3a414a;strokeOpacity=100;rounded=1;absoluteArcSize=1;arcSize=9;strokeWidth=4;lucidId=O8fUWm7_ulAh;container=0;fontFamily=Helvetica;fontStyle=1" parent="WIyWlLk6GJQsqaUBKTNV-1" vertex="1">
          <mxGeometry x="4158.165784832451" y="39.650145772595124" width="220.5291005291005" height="139.32944606413994" as="geometry" />
        </mxCell>
        <mxCell id="CaYZFUY7cnY6W1_ikCHt-278" style="rounded=0;orthogonalLoop=1;jettySize=auto;html=1;endArrow=none;endFill=0;exitX=1;exitY=0;exitDx=0;exitDy=0;fontSize=30;fontFamily=Helvetica;fontStyle=1;strokeWidth=4;" parent="WIyWlLk6GJQsqaUBKTNV-1" source="CaYZFUY7cnY6W1_ikCHt-275" target="CaYZFUY7cnY6W1_ikCHt-261" edge="1">
          <mxGeometry relative="1" as="geometry">
            <mxPoint x="2817.3304761904756" y="246.15186588921324" as="sourcePoint" />
            <mxPoint x="2988.240529100529" y="17.032332361515955" as="targetPoint" />
          </mxGeometry>
        </mxCell>
        <mxCell id="CaYZFUY7cnY6W1_ikCHt-279" style="rounded=0;orthogonalLoop=1;jettySize=auto;html=1;endArrow=none;endFill=0;fontSize=30;fontFamily=Helvetica;fontStyle=1;strokeWidth=4;" parent="WIyWlLk6GJQsqaUBKTNV-1" source="CaYZFUY7cnY6W1_ikCHt-276" target="CaYZFUY7cnY6W1_ikCHt-261" edge="1">
          <mxGeometry relative="1" as="geometry">
            <mxPoint x="3036.021834215167" y="255.4404956268222" as="sourcePoint" />
            <mxPoint x="3036.021834215167" y="23.22475218658883" as="targetPoint" />
          </mxGeometry>
        </mxCell>
        <mxCell id="CaYZFUY7cnY6W1_ikCHt-280" style="rounded=0;orthogonalLoop=1;jettySize=auto;html=1;endArrow=none;endFill=0;fontSize=30;fontFamily=Helvetica;fontStyle=1;strokeWidth=4;" parent="WIyWlLk6GJQsqaUBKTNV-1" source="CaYZFUY7cnY6W1_ikCHt-277" target="CaYZFUY7cnY6W1_ikCHt-261" edge="1">
          <mxGeometry relative="1" as="geometry">
            <mxPoint x="3245.5244797178125" y="230.6708163265307" as="sourcePoint" />
            <mxPoint x="3083.803139329805" y="17.032332361515955" as="targetPoint" />
          </mxGeometry>
        </mxCell>
        <mxCell id="CaYZFUY7cnY6W1_ikCHt-281" value="&lt;font style=&quot;font-size: 30px;&quot;&gt;SETTINGS&lt;/font&gt;" style="html=1;overflow=block;blockSpacing=1;whiteSpace=wrap;ellipse;fontSize=30;fontColor=#3a414a;spacing=3.8;strokeColor=#3a414a;strokeOpacity=100;rounded=1;absoluteArcSize=1;arcSize=9;strokeWidth=4;lucidId=DWfU4wRoh6Re;container=0;fontFamily=Helvetica;fontStyle=1" parent="WIyWlLk6GJQsqaUBKTNV-1" vertex="1">
          <mxGeometry x="2432.52557319224" y="-920.1749271137024" width="220.5291005291005" height="139.32944606413994" as="geometry" />
        </mxCell>
        <mxCell id="CaYZFUY7cnY6W1_ikCHt-282" value="" style="html=1;jettySize=18;whiteSpace=wrap;fontSize=30;strokeColor=#3a414a;strokeOpacity=100;strokeWidth=4;rounded=0;startArrow=none;endArrow=none;exitX=1;exitY=0.5;entryX=0;entryY=0.5;lucidId=G_fU~wgWZsta;exitDx=0;exitDy=0;entryDx=0;entryDy=0;fontFamily=Helvetica;fontStyle=1" parent="WIyWlLk6GJQsqaUBKTNV-1" source="CaYZFUY7cnY6W1_ikCHt-281" target="CaYZFUY7cnY6W1_ikCHt-246" edge="1">
          <mxGeometry width="100" height="100" relative="1" as="geometry">
            <Array as="points" />
            <mxPoint x="2627.3262786596115" y="-625.2609329446063" as="sourcePoint" />
            <mxPoint x="2936.067019400353" y="-814.1297376093294" as="targetPoint" />
          </mxGeometry>
        </mxCell>
        <mxCell id="CaYZFUY7cnY6W1_ikCHt-283" value="" style="endArrow=none;html=1;rounded=0;fontSize=30;fontFamily=Helvetica;fontStyle=1;strokeWidth=4;" parent="WIyWlLk6GJQsqaUBKTNV-1" source="CaYZFUY7cnY6W1_ikCHt-246" target="CaYZFUY7cnY6W1_ikCHt-241" edge="1">
          <mxGeometry width="50" height="50" relative="1" as="geometry">
            <mxPoint x="3152.0017636684297" y="-858.2507288629736" as="sourcePoint" />
            <mxPoint x="2977.416225749559" y="-1113.6880466472303" as="targetPoint" />
          </mxGeometry>
        </mxCell>
        <mxCell id="CaYZFUY7cnY6W1_ikCHt-284" value="" style="endArrow=none;html=1;rounded=0;exitX=1;exitY=0.5;exitDx=0;exitDy=0;fontSize=30;fontFamily=Helvetica;fontStyle=1;strokeWidth=4;" parent="WIyWlLk6GJQsqaUBKTNV-1" source="CaYZFUY7cnY6W1_ikCHt-809" target="CaYZFUY7cnY6W1_ikCHt-246" edge="1">
          <mxGeometry width="50" height="50" relative="1" as="geometry">
            <mxPoint x="3297.5668340831053" y="-517.1173966488775" as="sourcePoint" />
            <mxPoint x="3298.984409171076" y="-703.4402332361515" as="targetPoint" />
          </mxGeometry>
        </mxCell>
        <mxCell id="CaYZFUY7cnY6W1_ikCHt-285" value="&lt;font style=&quot;font-size: 30px;&quot;&gt;REPORTS&lt;/font&gt;" style="html=1;overflow=block;blockSpacing=1;whiteSpace=wrap;ellipse;fontSize=30;fontColor=#3a414a;spacing=3.8;strokeColor=#3a414a;strokeOpacity=100;rounded=1;absoluteArcSize=1;arcSize=9;strokeWidth=4;lucidId=DWfU4wRoh6Re;container=0;fontFamily=Helvetica;fontStyle=1" parent="WIyWlLk6GJQsqaUBKTNV-1" vertex="1">
          <mxGeometry x="3009.5767195767194" y="-1253.0174927113703" width="220.5291005291005" height="139.32944606413994" as="geometry" />
        </mxCell>
        <mxCell id="CaYZFUY7cnY6W1_ikCHt-286" value="" style="endArrow=none;html=1;rounded=0;fontSize=30;fontFamily=Helvetica;fontStyle=1;strokeWidth=4;" parent="WIyWlLk6GJQsqaUBKTNV-1" source="CaYZFUY7cnY6W1_ikCHt-246" target="CaYZFUY7cnY6W1_ikCHt-285" edge="1">
          <mxGeometry width="50" height="50" relative="1" as="geometry">
            <mxPoint x="3292.5890652557314" y="-780.8454810495625" as="sourcePoint" />
            <mxPoint x="3197.9453262786596" y="-1059.5043731778424" as="targetPoint" />
          </mxGeometry>
        </mxCell>
        <mxCell id="CaYZFUY7cnY6W1_ikCHt-287" value="&lt;font style=&quot;font-size: 25px;&quot;&gt;DASHBOARD_ CUSTOMIZATION&lt;/font&gt;" style="html=1;overflow=block;blockSpacing=1;whiteSpace=wrap;ellipse;fontSize=25;fontColor=#3a414a;spacing=3.8;strokeColor=#3a414a;strokeOpacity=100;rounded=1;absoluteArcSize=1;arcSize=9;strokeWidth=4;lucidId=DWfU4wRoh6Re;container=0;fontFamily=Helvetica;fontStyle=1" parent="WIyWlLk6GJQsqaUBKTNV-1" vertex="1">
          <mxGeometry x="3110.652557319224" y="-1113.6880466472303" width="220.5291005291005" height="139.32944606413994" as="geometry" />
        </mxCell>
        <mxCell id="CaYZFUY7cnY6W1_ikCHt-288" value="" style="endArrow=none;html=1;rounded=0;fontSize=30;fontFamily=Helvetica;fontStyle=1;strokeWidth=4;" parent="WIyWlLk6GJQsqaUBKTNV-1" source="CaYZFUY7cnY6W1_ikCHt-246" target="CaYZFUY7cnY6W1_ikCHt-287" edge="1">
          <mxGeometry width="50" height="50" relative="1" as="geometry">
            <mxPoint x="3166.0421164021163" y="-779.6998833819241" as="sourcePoint" />
            <mxPoint x="3325.925714285714" y="-1059.906880466472" as="targetPoint" />
          </mxGeometry>
        </mxCell>
        <mxCell id="CaYZFUY7cnY6W1_ikCHt-289" value="DATA_MNGT" style="html=1;overflow=block;blockSpacing=1;whiteSpace=wrap;ellipse;fontSize=30;fontColor=#3a414a;spacing=3.8;strokeColor=#3a414a;strokeOpacity=100;rounded=1;absoluteArcSize=1;arcSize=9;strokeWidth=4;lucidId=DWfU4wRoh6Re;container=0;fontFamily=Helvetica;fontStyle=1" parent="WIyWlLk6GJQsqaUBKTNV-1" vertex="1">
          <mxGeometry x="3386.3139329805995" y="-1229.795918367347" width="220.5291005291005" height="139.32944606413994" as="geometry" />
        </mxCell>
        <mxCell id="CaYZFUY7cnY6W1_ikCHt-290" value="" style="endArrow=none;html=1;rounded=0;fontSize=30;fontFamily=Helvetica;fontStyle=1;strokeWidth=4;" parent="WIyWlLk6GJQsqaUBKTNV-1" source="CaYZFUY7cnY6W1_ikCHt-246" target="CaYZFUY7cnY6W1_ikCHt-289" edge="1">
          <mxGeometry width="50" height="50" relative="1" as="geometry">
            <mxPoint x="3092.440529100529" y="-764.5903790087464" as="sourcePoint" />
            <mxPoint x="3447.1248324514986" y="-1040.1530612244896" as="targetPoint" />
          </mxGeometry>
        </mxCell>
        <mxCell id="CaYZFUY7cnY6W1_ikCHt-291" value="&lt;font style=&quot;font-size: 25px;&quot;&gt;&lt;span style=&quot;font-size: 25px;&quot;&gt;HELP_AND_&lt;br&gt;SUPPORT&lt;/span&gt;&lt;/font&gt;" style="html=1;overflow=block;blockSpacing=1;whiteSpace=wrap;ellipse;fontSize=25;fontColor=#3a414a;spacing=3.8;strokeColor=#3a414a;strokeOpacity=100;rounded=1;absoluteArcSize=1;arcSize=9;strokeWidth=4;lucidId=DWfU4wRoh6Re;container=0;fontFamily=Helvetica;fontStyle=1" parent="WIyWlLk6GJQsqaUBKTNV-1" vertex="1">
          <mxGeometry x="3386.3139329805995" y="-1067.2448979591836" width="220.5291005291005" height="139.32944606413994" as="geometry" />
        </mxCell>
        <mxCell id="CaYZFUY7cnY6W1_ikCHt-292" value="" style="endArrow=none;html=1;rounded=0;fontSize=30;fontFamily=Helvetica;fontStyle=1;strokeWidth=4;" parent="WIyWlLk6GJQsqaUBKTNV-1" source="CaYZFUY7cnY6W1_ikCHt-246" target="CaYZFUY7cnY6W1_ikCHt-291" edge="1">
          <mxGeometry width="50" height="50" relative="1" as="geometry">
            <mxPoint x="3588.465608465608" y="-851.1139650145772" as="sourcePoint" />
            <mxPoint x="3882.5044091710756" y="-974.9623615160348" as="targetPoint" />
          </mxGeometry>
        </mxCell>
        <mxCell id="CaYZFUY7cnY6W1_ikCHt-295" value="&lt;font style=&quot;font-size: 25px;&quot;&gt;NOTIFICATIONS&lt;/font&gt;" style="html=1;overflow=block;blockSpacing=1;whiteSpace=wrap;ellipse;fontSize=25;fontColor=#3a414a;spacing=3.8;strokeColor=#3a414a;strokeOpacity=100;rounded=1;absoluteArcSize=1;arcSize=9;strokeWidth=4;lucidId=DWfU4wRoh6Re;container=0;fontFamily=Helvetica;fontStyle=1" parent="WIyWlLk6GJQsqaUBKTNV-1" vertex="1">
          <mxGeometry x="3643.5978835978835" y="-1067.2448979591836" width="220.5291005291005" height="139.32944606413994" as="geometry" />
        </mxCell>
        <mxCell id="CaYZFUY7cnY6W1_ikCHt-296" value="" style="endArrow=none;html=1;rounded=0;fontSize=30;fontFamily=Helvetica;fontStyle=1;strokeWidth=4;" parent="WIyWlLk6GJQsqaUBKTNV-1" source="CaYZFUY7cnY6W1_ikCHt-246" target="CaYZFUY7cnY6W1_ikCHt-295" edge="1">
          <mxGeometry width="50" height="50" relative="1" as="geometry">
            <mxPoint x="3340.3703703703704" y="-871.0107902691316" as="sourcePoint" />
            <mxPoint x="3913.5077792942407" y="-963.6485768539657" as="targetPoint" />
          </mxGeometry>
        </mxCell>
        <mxCell id="CaYZFUY7cnY6W1_ikCHt-297" value="&lt;font style=&quot;font-size: 30px;&quot;&gt;NOTIFICATIONS&lt;/font&gt;" style="html=1;overflow=block;blockSpacing=1;whiteSpace=wrap;ellipse;fontSize=30;fontColor=#3a414a;spacing=3.8;strokeColor=#3a414a;strokeOpacity=100;rounded=1;absoluteArcSize=1;arcSize=9;strokeWidth=4;lucidId=DWfU4wRoh6Re;container=0;fontFamily=Helvetica;fontStyle=1" parent="WIyWlLk6GJQsqaUBKTNV-1" vertex="1">
          <mxGeometry x="537.8130511463844" y="-517.6676384839648" width="220.5291005291005" height="139.32944606413994" as="geometry" />
        </mxCell>
        <mxCell id="CaYZFUY7cnY6W1_ikCHt-300" value="" style="html=1;jettySize=18;whiteSpace=wrap;fontSize=30;strokeColor=#3a414a;strokeOpacity=100;strokeWidth=4;rounded=0;startArrow=none;endArrow=none;lucidId=G_fU~wgWZsta;fontFamily=Helvetica;fontStyle=1" parent="WIyWlLk6GJQsqaUBKTNV-1" source="CaYZFUY7cnY6W1_ikCHt-297" target="CaYZFUY7cnY6W1_ikCHt-112" edge="1">
          <mxGeometry width="100" height="100" relative="1" as="geometry">
            <Array as="points" />
            <mxPoint x="539.6507936507937" y="-417.0408163265306" as="sourcePoint" />
            <mxPoint x="879.6331569664903" y="-486.7055393586006" as="targetPoint" />
          </mxGeometry>
        </mxCell>
        <mxCell id="CaYZFUY7cnY6W1_ikCHt-306" value="&lt;span style=&quot;font-size: 30px;&quot;&gt;DATA_SETS&lt;/span&gt;" style="html=1;overflow=block;blockSpacing=1;whiteSpace=wrap;fontSize=30;fontColor=#3a414a;spacing=9;strokeColor=#3a414a;strokeOpacity=100;rounded=1;absoluteArcSize=1;arcSize=9;strokeWidth=4;lucidId=C.fUB1nWtgO5;container=0;fontFamily=Helvetica;fontStyle=1" parent="WIyWlLk6GJQsqaUBKTNV-1" vertex="1">
          <mxGeometry x="2101.7319223985887" y="844.6647230320705" width="220.5291005291005" height="139.32944606413994" as="geometry" />
        </mxCell>
        <mxCell id="CaYZFUY7cnY6W1_ikCHt-307" style="rounded=0;orthogonalLoop=1;jettySize=auto;html=1;entryX=1;entryY=0.5;entryDx=0;entryDy=0;endArrow=none;endFill=0;fontSize=30;fontFamily=Helvetica;fontStyle=1;strokeWidth=4;" parent="WIyWlLk6GJQsqaUBKTNV-1" source="CaYZFUY7cnY6W1_ikCHt-306" target="CaYZFUY7cnY6W1_ikCHt-123" edge="1">
          <mxGeometry relative="1" as="geometry">
            <mxPoint x="1736.3887125220458" y="344.4100874635574" as="sourcePoint" />
            <mxPoint x="1631.637389770723" y="90.52087463556904" as="targetPoint" />
          </mxGeometry>
        </mxCell>
        <mxCell id="CaYZFUY7cnY6W1_ikCHt-308" value="&lt;font style=&quot;font-size: 22px;&quot;&gt;&lt;span style=&quot;font-size: 22px;&quot;&gt;MOCKTEST_SCORE&lt;/span&gt;&lt;/font&gt;" style="html=1;overflow=block;blockSpacing=1;whiteSpace=wrap;ellipse;fontSize=22;fontColor=#3a414a;spacing=3.8;strokeColor=#3a414a;strokeOpacity=100;rounded=1;absoluteArcSize=1;arcSize=9;strokeWidth=4;lucidId=DWfU4wRoh6Re;container=0;fontFamily=Helvetica;fontStyle=1" parent="WIyWlLk6GJQsqaUBKTNV-1" vertex="1">
          <mxGeometry x="1758.0740740740741" y="1192.98833819242" width="220.5291005291005" height="139.32944606413994" as="geometry" />
        </mxCell>
        <mxCell id="CaYZFUY7cnY6W1_ikCHt-309" value="&lt;font style=&quot;font-size: 23px;&quot;&gt;&lt;span style=&quot;font-size: 23px;&quot;&gt;EDUCATIONAL_BG&lt;/span&gt;&lt;/font&gt;" style="html=1;overflow=block;blockSpacing=1;whiteSpace=wrap;ellipse;fontSize=23;fontColor=#3a414a;spacing=3.8;strokeColor=#3a414a;strokeOpacity=100;rounded=1;absoluteArcSize=1;arcSize=9;strokeWidth=4;lucidId=DWfU4wRoh6Re;container=0;fontFamily=Helvetica;fontStyle=1" parent="WIyWlLk6GJQsqaUBKTNV-1" vertex="1">
          <mxGeometry x="2211.9964726631392" y="550.5247813411079" width="220.5291005291005" height="139.32944606413994" as="geometry" />
        </mxCell>
        <mxCell id="CaYZFUY7cnY6W1_ikCHt-310" value="&lt;font style=&quot;font-size: 24px;&quot;&gt;&lt;span style=&quot;font-size: 24px;&quot;&gt;WORK_&lt;br style=&quot;font-size: 24px;&quot;&gt;ENVIRONMENT&lt;/span&gt;&lt;/font&gt;" style="html=1;overflow=block;blockSpacing=1;whiteSpace=wrap;ellipse;fontSize=24;fontColor=#3a414a;spacing=3.8;strokeColor=#3a414a;strokeOpacity=100;rounded=1;absoluteArcSize=1;arcSize=9;strokeWidth=4;lucidId=DWfU4wRoh6Re;container=0;fontFamily=Helvetica;fontStyle=1" parent="WIyWlLk6GJQsqaUBKTNV-1" vertex="1">
          <mxGeometry x="1816.8818342151678" y="1386.5014577259476" width="220.5291005291005" height="139.32944606413994" as="geometry" />
        </mxCell>
        <mxCell id="CaYZFUY7cnY6W1_ikCHt-311" value="&lt;font style=&quot;font-size: 24px;&quot;&gt;&lt;span style=&quot;font-size: 24px;&quot;&gt;STUDY_HABITS&lt;/span&gt;&lt;/font&gt;" style="html=1;overflow=block;blockSpacing=1;whiteSpace=wrap;ellipse;fontSize=24;fontColor=#3a414a;spacing=3.8;strokeColor=#3a414a;strokeOpacity=100;rounded=1;absoluteArcSize=1;arcSize=9;strokeWidth=4;lucidId=DWfU4wRoh6Re;container=0;fontFamily=Helvetica;fontStyle=1" parent="WIyWlLk6GJQsqaUBKTNV-1" vertex="1">
          <mxGeometry x="1945.5238095238094" y="1510.3498542274056" width="220.5291005291005" height="139.32944606413994" as="geometry" />
        </mxCell>
        <mxCell id="CaYZFUY7cnY6W1_ikCHt-314" value="&lt;font style=&quot;font-size: 24px;&quot;&gt;&lt;span style=&quot;font-size: 24px;&quot;&gt;PYSCHOLOGICAL&lt;br style=&quot;font-size: 24px;&quot;&gt;_FACTORS&lt;/span&gt;&lt;/font&gt;" style="html=1;overflow=block;blockSpacing=1;whiteSpace=wrap;ellipse;fontSize=24;fontColor=#3a414a;spacing=3.8;strokeColor=#3a414a;strokeOpacity=100;rounded=1;absoluteArcSize=1;arcSize=9;strokeWidth=4;lucidId=DWfU4wRoh6Re;container=0;fontFamily=Helvetica;fontStyle=1" parent="WIyWlLk6GJQsqaUBKTNV-1" vertex="1">
          <mxGeometry x="2147.675485008818" y="1590.8513119533532" width="220.5291005291005" height="139.32944606413994" as="geometry" />
        </mxCell>
        <mxCell id="CaYZFUY7cnY6W1_ikCHt-317" value="&lt;span style=&quot;font-size: 24px;&quot;&gt;&lt;span style=&quot;font-size: 24px;&quot;&gt;WORK_EXP&lt;/span&gt;&lt;/span&gt;" style="html=1;overflow=block;blockSpacing=1;whiteSpace=wrap;ellipse;fontSize=24;fontColor=#3a414a;spacing=3.8;strokeColor=#3a414a;strokeOpacity=100;rounded=1;absoluteArcSize=1;arcSize=9;strokeWidth=4;lucidId=DWfU4wRoh6Re;container=0;fontFamily=Helvetica;fontStyle=1" parent="WIyWlLk6GJQsqaUBKTNV-1" vertex="1">
          <mxGeometry x="2386.5820105820103" y="1556.7930029154518" width="220.5291005291005" height="139.32944606413994" as="geometry" />
        </mxCell>
        <mxCell id="CaYZFUY7cnY6W1_ikCHt-318" value="&lt;span style=&quot;font-size: 24px;&quot;&gt;&lt;span style=&quot;font-size: 24px;&quot;&gt;WORK_STRESS&lt;/span&gt;&lt;/span&gt;" style="html=1;overflow=block;blockSpacing=1;whiteSpace=wrap;ellipse;fontSize=24;fontColor=#3a414a;spacing=3.8;strokeColor=#3a414a;strokeOpacity=100;rounded=1;absoluteArcSize=1;arcSize=9;strokeWidth=4;lucidId=DWfU4wRoh6Re;container=0;fontFamily=Helvetica;fontStyle=1" parent="WIyWlLk6GJQsqaUBKTNV-1" vertex="1">
          <mxGeometry x="2607.1111111111104" y="1510.3498542274056" width="220.5291005291005" height="139.32944606413994" as="geometry" />
        </mxCell>
        <mxCell id="CaYZFUY7cnY6W1_ikCHt-319" value="&lt;span style=&quot;font-size: 30px;&quot;&gt;&lt;span style=&quot;font-size: 30px;&quot;&gt;INSTITUTION_&lt;br style=&quot;font-size: 30px;&quot;&gt;ATTENDED&lt;br style=&quot;font-size: 30px;&quot;&gt;&lt;/span&gt;&lt;/span&gt;" style="html=1;overflow=block;blockSpacing=1;whiteSpace=wrap;ellipse;fontSize=30;fontColor=#3a414a;spacing=3.8;strokeColor=#3a414a;strokeOpacity=100;rounded=1;absoluteArcSize=1;arcSize=9;strokeWidth=4;lucidId=DWfU4wRoh6Re;container=0;fontFamily=Helvetica;fontStyle=1" parent="WIyWlLk6GJQsqaUBKTNV-1" vertex="1">
          <mxGeometry x="2485.8201058201057" y="596.967930029155" width="220.5291005291005" height="139.32944606413994" as="geometry" />
        </mxCell>
        <mxCell id="CaYZFUY7cnY6W1_ikCHt-320" value="&lt;span style=&quot;font-size: 24px;&quot;&gt;&lt;span style=&quot;font-size: 24px;&quot;&gt;GEN._WEIGHTED&lt;br style=&quot;font-size: 24px;&quot;&gt;_AVERAGE&lt;br style=&quot;font-size: 24px;&quot;&gt;&lt;/span&gt;&lt;/span&gt;" style="html=1;overflow=block;blockSpacing=1;whiteSpace=wrap;ellipse;fontSize=24;fontColor=#3a414a;spacing=3.8;strokeColor=#3a414a;strokeOpacity=100;rounded=1;absoluteArcSize=1;arcSize=9;strokeWidth=4;lucidId=DWfU4wRoh6Re;container=0;fontFamily=Helvetica;fontStyle=1" parent="WIyWlLk6GJQsqaUBKTNV-1" vertex="1">
          <mxGeometry x="2772.5079365079364" y="1386.5014577259476" width="220.5291005291005" height="139.32944606413994" as="geometry" />
        </mxCell>
        <mxCell id="CaYZFUY7cnY6W1_ikCHt-321" value="&lt;span style=&quot;font-size: 27px;&quot;&gt;&lt;span style=&quot;font-size: 27px;&quot;&gt;STUDY_HOURS&lt;br style=&quot;font-size: 27px;&quot;&gt;&lt;/span&gt;&lt;/span&gt;" style="html=1;overflow=block;blockSpacing=1;whiteSpace=wrap;ellipse;fontSize=27;fontColor=#3a414a;spacing=3.8;strokeColor=#3a414a;strokeOpacity=100;rounded=1;absoluteArcSize=1;arcSize=9;strokeWidth=4;lucidId=DWfU4wRoh6Re;container=0;fontFamily=Helvetica;fontStyle=1" parent="WIyWlLk6GJQsqaUBKTNV-1" vertex="1">
          <mxGeometry x="2653.0546737213404" y="705.3352769679304" width="220.5291005291005" height="139.32944606413994" as="geometry" />
        </mxCell>
        <mxCell id="CaYZFUY7cnY6W1_ikCHt-322" value="&lt;span style=&quot;font-size: 24px;&quot;&gt;&lt;span style=&quot;font-size: 24px;&quot;&gt;PREV._TEACHING_&lt;br style=&quot;font-size: 24px;&quot;&gt;EXP&lt;br style=&quot;font-size: 24px;&quot;&gt;&lt;/span&gt;&lt;/span&gt;" style="html=1;overflow=block;blockSpacing=1;whiteSpace=wrap;ellipse;fontSize=24;fontColor=#3a414a;spacing=3.8;strokeColor=#3a414a;strokeOpacity=100;rounded=1;absoluteArcSize=1;arcSize=9;strokeWidth=4;lucidId=DWfU4wRoh6Re;container=0;fontFamily=Helvetica;fontStyle=1" parent="WIyWlLk6GJQsqaUBKTNV-1" vertex="1">
          <mxGeometry x="2809.26278659612" y="1231.6909620991255" width="220.5291005291005" height="139.32944606413994" as="geometry" />
        </mxCell>
        <mxCell id="CaYZFUY7cnY6W1_ikCHt-323" style="rounded=0;orthogonalLoop=1;jettySize=auto;html=1;endArrow=none;endFill=0;fontSize=30;fontFamily=Helvetica;fontStyle=1;strokeWidth=4;" parent="WIyWlLk6GJQsqaUBKTNV-1" source="CaYZFUY7cnY6W1_ikCHt-308" target="CaYZFUY7cnY6W1_ikCHt-306" edge="1">
          <mxGeometry relative="1" as="geometry">
            <mxPoint x="3211.728395061728" y="565.2317784256561" as="sourcePoint" />
            <mxPoint x="2550.1410934744267" y="257.15889212828006" as="targetPoint" />
          </mxGeometry>
        </mxCell>
        <mxCell id="CaYZFUY7cnY6W1_ikCHt-324" style="rounded=0;orthogonalLoop=1;jettySize=auto;html=1;endArrow=none;endFill=0;fontSize=30;fontFamily=Helvetica;fontStyle=1;strokeWidth=4;" parent="WIyWlLk6GJQsqaUBKTNV-1" source="CaYZFUY7cnY6W1_ikCHt-310" target="CaYZFUY7cnY6W1_ikCHt-306" edge="1">
          <mxGeometry relative="1" as="geometry">
            <mxPoint x="2449.0652557319227" y="559.8134110787173" as="sourcePoint" />
            <mxPoint x="2522.574955908289" y="480.8600583090383" as="targetPoint" />
          </mxGeometry>
        </mxCell>
        <mxCell id="CaYZFUY7cnY6W1_ikCHt-325" style="rounded=0;orthogonalLoop=1;jettySize=auto;html=1;endArrow=none;endFill=0;fontSize=30;fontFamily=Helvetica;fontStyle=1;strokeWidth=4;" parent="WIyWlLk6GJQsqaUBKTNV-1" source="CaYZFUY7cnY6W1_ikCHt-311" target="CaYZFUY7cnY6W1_ikCHt-306" edge="1">
          <mxGeometry relative="1" as="geometry">
            <mxPoint x="2519.579435626102" y="597.6645772594757" as="sourcePoint" />
            <mxPoint x="2471.798130511464" y="410.3438775510208" as="targetPoint" />
          </mxGeometry>
        </mxCell>
        <mxCell id="CaYZFUY7cnY6W1_ikCHt-326" style="rounded=0;orthogonalLoop=1;jettySize=auto;html=1;endArrow=none;endFill=0;fontSize=30;fontFamily=Helvetica;fontStyle=1;strokeWidth=4;" parent="WIyWlLk6GJQsqaUBKTNV-1" source="CaYZFUY7cnY6W1_ikCHt-319" target="CaYZFUY7cnY6W1_ikCHt-306" edge="1">
          <mxGeometry relative="1" as="geometry">
            <mxPoint x="2466.6551257801834" y="747.9871158231158" as="sourcePoint" />
            <mxPoint x="2695.322751322751" y="409.4924198250733" as="targetPoint" />
          </mxGeometry>
        </mxCell>
        <mxCell id="CaYZFUY7cnY6W1_ikCHt-327" style="rounded=0;orthogonalLoop=1;jettySize=auto;html=1;endArrow=none;endFill=0;fontSize=30;fontFamily=Helvetica;fontStyle=1;strokeWidth=4;" parent="WIyWlLk6GJQsqaUBKTNV-1" source="CaYZFUY7cnY6W1_ikCHt-309" target="CaYZFUY7cnY6W1_ikCHt-306" edge="1">
          <mxGeometry relative="1" as="geometry">
            <mxPoint x="2591.7292063492064" y="597.6645772594757" as="sourcePoint" />
            <mxPoint x="2543.947901234568" y="410.3438775510208" as="targetPoint" />
          </mxGeometry>
        </mxCell>
        <mxCell id="CaYZFUY7cnY6W1_ikCHt-328" style="rounded=0;orthogonalLoop=1;jettySize=auto;html=1;endArrow=none;endFill=0;exitX=0;exitY=0;exitDx=0;exitDy=0;fontSize=30;fontFamily=Helvetica;fontStyle=1;strokeWidth=4;" parent="WIyWlLk6GJQsqaUBKTNV-1" source="CaYZFUY7cnY6W1_ikCHt-318" target="CaYZFUY7cnY6W1_ikCHt-306" edge="1">
          <mxGeometry relative="1" as="geometry">
            <mxPoint x="2255.2385537918867" y="894.204081632653" as="sourcePoint" />
            <mxPoint x="2505.1715343915344" y="473.11953352769706" as="targetPoint" />
          </mxGeometry>
        </mxCell>
        <mxCell id="CaYZFUY7cnY6W1_ikCHt-329" style="rounded=0;orthogonalLoop=1;jettySize=auto;html=1;endArrow=none;endFill=0;fontSize=30;fontFamily=Helvetica;fontStyle=1;strokeWidth=4;" parent="WIyWlLk6GJQsqaUBKTNV-1" source="CaYZFUY7cnY6W1_ikCHt-314" target="CaYZFUY7cnY6W1_ikCHt-306" edge="1">
          <mxGeometry relative="1" as="geometry">
            <mxPoint x="2273.6159788359787" y="685.2099125364434" as="sourcePoint" />
            <mxPoint x="2479.443139329806" y="473.11953352769706" as="targetPoint" />
          </mxGeometry>
        </mxCell>
        <mxCell id="CaYZFUY7cnY6W1_ikCHt-330" style="rounded=0;orthogonalLoop=1;jettySize=auto;html=1;endArrow=none;endFill=0;fontSize=30;fontFamily=Helvetica;fontStyle=1;strokeWidth=4;" parent="WIyWlLk6GJQsqaUBKTNV-1" source="CaYZFUY7cnY6W1_ikCHt-317" target="CaYZFUY7cnY6W1_ikCHt-306" edge="1">
          <mxGeometry relative="1" as="geometry">
            <mxPoint x="2323.2350264550264" y="1030.4373177842567" as="sourcePoint" />
            <mxPoint x="2521.7112169312168" y="473.11953352769706" as="targetPoint" />
          </mxGeometry>
        </mxCell>
        <mxCell id="CaYZFUY7cnY6W1_ikCHt-331" style="rounded=0;orthogonalLoop=1;jettySize=auto;html=1;endArrow=none;endFill=0;fontSize=30;fontFamily=Helvetica;fontStyle=1;strokeWidth=4;" parent="WIyWlLk6GJQsqaUBKTNV-1" source="CaYZFUY7cnY6W1_ikCHt-320" target="CaYZFUY7cnY6W1_ikCHt-306" edge="1">
          <mxGeometry relative="1" as="geometry">
            <mxPoint x="2743.2326984126985" y="909.9328279883384" as="sourcePoint" />
            <mxPoint x="2430.8164726631394" y="377.38472303207027" as="targetPoint" />
          </mxGeometry>
        </mxCell>
        <mxCell id="CaYZFUY7cnY6W1_ikCHt-332" style="rounded=0;orthogonalLoop=1;jettySize=auto;html=1;endArrow=none;endFill=0;fontSize=30;fontFamily=Helvetica;fontStyle=1;strokeWidth=4;" parent="WIyWlLk6GJQsqaUBKTNV-1" source="CaYZFUY7cnY6W1_ikCHt-321" target="CaYZFUY7cnY6W1_ikCHt-306" edge="1">
          <mxGeometry relative="1" as="geometry">
            <mxPoint x="3018.838941798942" y="897.8111661807579" as="sourcePoint" />
            <mxPoint x="2482.2181305114636" y="390.03274052478173" as="targetPoint" />
          </mxGeometry>
        </mxCell>
        <mxCell id="CaYZFUY7cnY6W1_ikCHt-333" style="rounded=0;orthogonalLoop=1;jettySize=auto;html=1;endArrow=none;endFill=0;fontSize=30;fontFamily=Helvetica;fontStyle=1;strokeWidth=4;" parent="WIyWlLk6GJQsqaUBKTNV-1" source="CaYZFUY7cnY6W1_ikCHt-322" target="CaYZFUY7cnY6W1_ikCHt-306" edge="1">
          <mxGeometry relative="1" as="geometry">
            <mxPoint x="2761.554991181658" y="922.5808454810499" as="sourcePoint" />
            <mxPoint x="2449.1387654320984" y="390.03274052478173" as="targetPoint" />
          </mxGeometry>
        </mxCell>
        <mxCell id="CaYZFUY7cnY6W1_ikCHt-340" value="&lt;font style=&quot;font-size: 25px;&quot;&gt;&lt;u style=&quot;font-size: 25px;&quot;&gt;&lt;span style=&quot;font-size: 25px;&quot;&gt;ADMIN_PROFILE&lt;br style=&quot;font-size: 25px;&quot;&gt;_ID&lt;/span&gt;&lt;/u&gt;&lt;/font&gt;" style="html=1;overflow=block;blockSpacing=1;whiteSpace=wrap;ellipse;fontSize=25;fontFamily=Helvetica;fontColor=#374151;spacing=3.8;strokeColor=#3a414a;strokeOpacity=100;rounded=1;absoluteArcSize=1;arcSize=9;strokeWidth=4;lucidId=eagUHfTHOve-;container=0;fontStyle=1" parent="WIyWlLk6GJQsqaUBKTNV-1" vertex="1">
          <mxGeometry x="4360.31746031746" y="-788.5860058309038" width="220.5291005291005" height="139.32944606413994" as="geometry" />
        </mxCell>
        <mxCell id="CaYZFUY7cnY6W1_ikCHt-341" style="rounded=0;orthogonalLoop=1;jettySize=auto;html=1;endArrow=none;endFill=0;fontSize=30;fontFamily=Helvetica;fontStyle=1;strokeWidth=4;" parent="WIyWlLk6GJQsqaUBKTNV-1" source="CaYZFUY7cnY6W1_ikCHt-340" target="CaYZFUY7cnY6W1_ikCHt-258" edge="1">
          <mxGeometry relative="1" as="geometry">
            <mxPoint x="4433.827160493826" y="-591.2026239067052" as="sourcePoint" />
            <mxPoint x="4103.033509700176" y="-602.039358600583" as="targetPoint" />
          </mxGeometry>
        </mxCell>
        <mxCell id="CaYZFUY7cnY6W1_ikCHt-342" value="&lt;font style=&quot;font-size: 30px;&quot;&gt;&lt;span style=&quot;font-size: 30px;&quot;&gt;&lt;u style=&quot;font-size: 30px;&quot;&gt;DATASETS_ID&lt;/u&gt;&lt;/span&gt;&lt;/font&gt;" style="html=1;overflow=block;blockSpacing=1;whiteSpace=wrap;ellipse;fontSize=30;fontColor=#3a414a;spacing=3.8;strokeColor=#3a414a;strokeOpacity=100;rounded=1;absoluteArcSize=1;arcSize=9;strokeWidth=4;lucidId=DWfU4wRoh6Re;container=0;fontFamily=Helvetica;fontStyle=1" parent="WIyWlLk6GJQsqaUBKTNV-1" vertex="1">
          <mxGeometry x="1963.9012345679012" y="550.5247813411079" width="220.5291005291005" height="139.32944606413994" as="geometry" />
        </mxCell>
        <mxCell id="CaYZFUY7cnY6W1_ikCHt-343" style="rounded=0;orthogonalLoop=1;jettySize=auto;html=1;endArrow=none;endFill=0;fontSize=30;fontFamily=Helvetica;fontStyle=1;strokeWidth=4;" parent="WIyWlLk6GJQsqaUBKTNV-1" source="CaYZFUY7cnY6W1_ikCHt-342" target="CaYZFUY7cnY6W1_ikCHt-306" edge="1">
          <mxGeometry relative="1" as="geometry">
            <mxPoint x="2743.1040564373893" y="309.23714285714277" as="sourcePoint" />
            <mxPoint x="2384.744268077601" y="295.30419825072886" as="targetPoint" />
          </mxGeometry>
        </mxCell>
        <mxCell id="CaYZFUY7cnY6W1_ikCHt-344" value="&lt;u style=&quot;font-size: 30px;&quot;&gt;UAT_PROFILE_&lt;br style=&quot;font-size: 30px;&quot;&gt;ID&lt;/u&gt;" style="html=1;overflow=block;blockSpacing=1;whiteSpace=wrap;ellipse;fontSize=30;fontFamily=Helvetica;fontColor=#374151;spacing=3.8;strokeColor=#3a414a;strokeOpacity=100;rounded=1;absoluteArcSize=1;arcSize=9;strokeWidth=4;lucidId=oagUY4e~x0Zh;container=0;fontStyle=1" parent="WIyWlLk6GJQsqaUBKTNV-1" vertex="1">
          <mxGeometry x="1401.5520282186947" y="1173.6370262390674" width="220.5291005291005" height="139.32944606413994" as="geometry" />
        </mxCell>
        <mxCell id="CaYZFUY7cnY6W1_ikCHt-345" style="rounded=0;orthogonalLoop=1;jettySize=auto;html=1;endArrow=none;endFill=0;fontSize=30;fontFamily=Helvetica;fontStyle=1;strokeWidth=4;" parent="WIyWlLk6GJQsqaUBKTNV-1" source="CaYZFUY7cnY6W1_ikCHt-344" target="CaYZFUY7cnY6W1_ikCHt-126" edge="1">
          <mxGeometry relative="1" as="geometry">
            <mxPoint x="1699.2663139329807" y="456.9573177842567" as="sourcePoint" />
            <mxPoint x="1557.7601410934744" y="356.3304956268221" as="targetPoint" />
          </mxGeometry>
        </mxCell>
        <mxCell id="CaYZFUY7cnY6W1_ikCHt-346" value="MIname" style="html=1;overflow=block;blockSpacing=1;whiteSpace=wrap;ellipse;fontSize=30;fontColor=#3a414a;spacing=3.8;strokeColor=#3a414a;strokeOpacity=100;rounded=1;absoluteArcSize=1;arcSize=9;strokeWidth=4;lucidId=DWfU4wRoh6Re;container=0;fontFamily=Helvetica;fontStyle=1" parent="WIyWlLk6GJQsqaUBKTNV-1" vertex="1">
          <mxGeometry x="2063.1393298059966" y="-695.6997084548107" width="220.5291005291005" height="139.32944606413994" as="geometry" />
        </mxCell>
        <mxCell id="CaYZFUY7cnY6W1_ikCHt-347" value="ADMIN_NAME" style="html=1;overflow=block;blockSpacing=1;whiteSpace=wrap;ellipse;fontSize=30;fontColor=#3a414a;spacing=3.8;strokeColor=#3a414a;strokeOpacity=100;rounded=1;absoluteArcSize=1;arcSize=9;strokeWidth=4;lucidId=EUfUqPaSO_sZ;container=0;fontFamily=Helvetica;fontStyle=1" parent="WIyWlLk6GJQsqaUBKTNV-1" vertex="1">
          <mxGeometry x="1906.9312169312168" y="-927.9154518950437" width="220.5291005291005" height="139.32944606413994" as="geometry" />
        </mxCell>
        <mxCell id="CaYZFUY7cnY6W1_ikCHt-348" value="Fname" style="html=1;overflow=block;blockSpacing=1;whiteSpace=wrap;ellipse;fontSize=30;fontColor=#3a414a;spacing=3.8;strokeColor=#3a414a;strokeOpacity=100;rounded=1;absoluteArcSize=1;arcSize=9;strokeWidth=4;lucidId=tWfUJXXfWlZt;container=0;fontFamily=Helvetica;fontStyle=1" parent="WIyWlLk6GJQsqaUBKTNV-1" vertex="1">
          <mxGeometry x="1769.100529100529" y="-703.4402332361515" width="220.5291005291005" height="139.32944606413994" as="geometry" />
        </mxCell>
        <mxCell id="CaYZFUY7cnY6W1_ikCHt-349" value="" style="html=1;jettySize=18;whiteSpace=wrap;fontSize=30;strokeColor=#3a414a;strokeOpacity=100;strokeWidth=4;rounded=0;startArrow=none;endArrow=none;lucidId=8WfUpV~ylW-B;fontFamily=Helvetica;fontStyle=1" parent="WIyWlLk6GJQsqaUBKTNV-1" source="CaYZFUY7cnY6W1_ikCHt-348" target="CaYZFUY7cnY6W1_ikCHt-347" edge="1">
          <mxGeometry width="100" height="100" relative="1" as="geometry">
            <Array as="points" />
          </mxGeometry>
        </mxCell>
        <mxCell id="CaYZFUY7cnY6W1_ikCHt-350" value="Lname" style="html=1;overflow=block;blockSpacing=1;whiteSpace=wrap;ellipse;fontSize=30;fontColor=#3a414a;spacing=3.8;strokeColor=#3a414a;strokeOpacity=100;rounded=1;absoluteArcSize=1;arcSize=9;strokeWidth=4;lucidId=lWfU_nWbbt9Z;container=0;fontFamily=Helvetica;fontStyle=1" parent="WIyWlLk6GJQsqaUBKTNV-1" vertex="1">
          <mxGeometry x="1576.137566137566" y="-873.7317784256559" width="220.5291005291005" height="139.32944606413994" as="geometry" />
        </mxCell>
        <mxCell id="CaYZFUY7cnY6W1_ikCHt-351" value="ADMIN_ID" style="html=1;overflow=block;blockSpacing=1;whiteSpace=wrap;ellipse;fontSize=30;fontColor=#3a414a;fontStyle=5;spacing=3.8;strokeColor=#3a414a;strokeOpacity=100;rounded=1;absoluteArcSize=1;arcSize=9;strokeWidth=4;lucidId=-QfUPdWI5O~R;container=0;fontFamily=Helvetica;" parent="WIyWlLk6GJQsqaUBKTNV-1" vertex="1">
          <mxGeometry x="2081.516754850088" y="-1624.5626822157433" width="220.5291005291005" height="139.32944606413994" as="geometry" />
        </mxCell>
        <mxCell id="CaYZFUY7cnY6W1_ikCHt-352" value="" style="html=1;jettySize=18;whiteSpace=wrap;fontSize=30;strokeColor=#3a414a;strokeOpacity=100;strokeWidth=4;rounded=0;startArrow=none;endArrow=none;lucidId=AXfUO9j~MnNt;fontFamily=Helvetica;fontStyle=1" parent="WIyWlLk6GJQsqaUBKTNV-1" source="CaYZFUY7cnY6W1_ikCHt-351" target="CaYZFUY7cnY6W1_ikCHt-86" edge="1">
          <mxGeometry width="100" height="100" relative="1" as="geometry">
            <Array as="points" />
            <mxPoint x="3027.954144620811" y="-1776.276967930029" as="targetPoint" />
          </mxGeometry>
        </mxCell>
        <mxCell id="CaYZFUY7cnY6W1_ikCHt-353" value="" style="html=1;jettySize=18;whiteSpace=wrap;fontSize=30;strokeColor=#3a414a;strokeOpacity=100;strokeWidth=4;rounded=0;startArrow=none;endArrow=none;lucidId=vXfUN436lNYY;fontFamily=Helvetica;fontStyle=1" parent="WIyWlLk6GJQsqaUBKTNV-1" source="CaYZFUY7cnY6W1_ikCHt-347" target="CaYZFUY7cnY6W1_ikCHt-86" edge="1">
          <mxGeometry width="100" height="100" relative="1" as="geometry">
            <Array as="points" />
            <mxPoint x="3027.954144620811" y="-1739.1224489795918" as="targetPoint" />
          </mxGeometry>
        </mxCell>
        <mxCell id="CaYZFUY7cnY6W1_ikCHt-354" value="" style="html=1;jettySize=18;whiteSpace=wrap;fontSize=30;strokeColor=#3a414a;strokeOpacity=100;strokeWidth=4;rounded=0;startArrow=none;endArrow=none;lucidId=JXfUxvO~LMSW;fontFamily=Helvetica;fontStyle=1" parent="WIyWlLk6GJQsqaUBKTNV-1" source="CaYZFUY7cnY6W1_ikCHt-355" target="CaYZFUY7cnY6W1_ikCHt-86" edge="1">
          <mxGeometry width="100" height="100" relative="1" as="geometry">
            <Array as="points" />
            <mxPoint x="3027.954144620811" y="-1835.1049562682215" as="targetPoint" />
          </mxGeometry>
        </mxCell>
        <mxCell id="CaYZFUY7cnY6W1_ikCHt-355" value="ADMIN_EMAIL" style="html=1;overflow=block;blockSpacing=1;whiteSpace=wrap;ellipse;fontSize=30;fontColor=#3a414a;spacing=3.8;strokeColor=#3a414a;strokeOpacity=100;rounded=1;absoluteArcSize=1;arcSize=9;strokeWidth=4;lucidId=CRfUIIhuyXKf;container=0;fontFamily=Helvetica;fontStyle=1" parent="WIyWlLk6GJQsqaUBKTNV-1" vertex="1">
          <mxGeometry x="2320.42328042328" y="-1616.8221574344022" width="220.5291005291005" height="139.32944606413994" as="geometry" />
        </mxCell>
        <mxCell id="CaYZFUY7cnY6W1_ikCHt-356" value="ADMIN_PASS" style="html=1;overflow=block;blockSpacing=1;whiteSpace=wrap;ellipse;fontSize=30;fontColor=#3a414a;spacing=3.8;strokeColor=#3a414a;strokeOpacity=100;rounded=1;absoluteArcSize=1;arcSize=9;strokeWidth=4;lucidId=1RfUlgexhU_U;container=0;fontFamily=Helvetica;fontStyle=1" parent="WIyWlLk6GJQsqaUBKTNV-1" vertex="1">
          <mxGeometry x="2559.3298059964727" y="-1531.6763848396502" width="220.5291005291005" height="139.32944606413994" as="geometry" />
        </mxCell>
        <mxCell id="CaYZFUY7cnY6W1_ikCHt-357" value="" style="html=1;jettySize=18;whiteSpace=wrap;fontSize=30;strokeColor=#3a414a;strokeOpacity=100;strokeWidth=4;rounded=0;startArrow=none;endArrow=none;lucidId=PXfUNPCwFw9~;fontFamily=Helvetica;fontStyle=1" parent="WIyWlLk6GJQsqaUBKTNV-1" source="CaYZFUY7cnY6W1_ikCHt-356" target="CaYZFUY7cnY6W1_ikCHt-86" edge="1">
          <mxGeometry width="100" height="100" relative="1" as="geometry">
            <Array as="points" />
            <mxPoint x="3062.8712522045857" y="-1855.2303206997085" as="targetPoint" />
          </mxGeometry>
        </mxCell>
        <mxCell id="CaYZFUY7cnY6W1_ikCHt-358" value="" style="html=1;jettySize=18;whiteSpace=wrap;fontSize=30;strokeColor=#3a414a;strokeOpacity=100;strokeWidth=4;rounded=0;startArrow=none;endArrow=none;lucidId=SXfUVCStKXkX;fontFamily=Helvetica;fontStyle=1" parent="WIyWlLk6GJQsqaUBKTNV-1" source="CaYZFUY7cnY6W1_ikCHt-359" target="CaYZFUY7cnY6W1_ikCHt-86" edge="1">
          <mxGeometry width="100" height="100" relative="1" as="geometry">
            <Array as="points" />
            <mxPoint x="3136.3809523809527" y="-1855.2303206997085" as="targetPoint" />
          </mxGeometry>
        </mxCell>
        <mxCell id="CaYZFUY7cnY6W1_ikCHt-359" value="ADDRESS" style="html=1;overflow=block;blockSpacing=1;whiteSpace=wrap;ellipse;fontSize=30;fontColor=#3a414a;spacing=3.8;strokeColor=#3a414a;strokeOpacity=100;rounded=1;absoluteArcSize=1;arcSize=9;strokeWidth=4;lucidId=MSfUnPYUDYJp;container=0;fontFamily=Helvetica;fontStyle=1" parent="WIyWlLk6GJQsqaUBKTNV-1" vertex="1">
          <mxGeometry x="2789.0476190476193" y="-1431.0495626822158" width="220.5291005291005" height="139.32944606413994" as="geometry" />
        </mxCell>
        <mxCell id="CaYZFUY7cnY6W1_ikCHt-360" value="PROV/CITY" style="html=1;overflow=block;blockSpacing=1;whiteSpace=wrap;ellipse;fontSize=30;fontColor=#3a414a;spacing=3.8;strokeColor=#3a414a;strokeOpacity=100;rounded=1;absoluteArcSize=1;arcSize=9;strokeWidth=4;lucidId=O8fUWm7_ulAh;container=0;fontFamily=Helvetica;fontStyle=1" parent="WIyWlLk6GJQsqaUBKTNV-1" vertex="1">
          <mxGeometry x="3073.897707231041" y="-1523.9358600583091" width="220.5291005291005" height="139.32944606413994" as="geometry" />
        </mxCell>
        <mxCell id="CaYZFUY7cnY6W1_ikCHt-361" value="ZIP_CODE" style="html=1;overflow=block;blockSpacing=1;whiteSpace=wrap;ellipse;fontSize=30;fontColor=#3a414a;spacing=3.8;strokeColor=#3a414a;strokeOpacity=100;rounded=1;absoluteArcSize=1;arcSize=9;strokeWidth=4;lucidId=WVfUuseRui..;container=0;fontFamily=Helvetica;fontStyle=1" parent="WIyWlLk6GJQsqaUBKTNV-1" vertex="1">
          <mxGeometry x="2926.878306878307" y="-1740.67055393586" width="220.5291005291005" height="139.32944606413994" as="geometry" />
        </mxCell>
        <mxCell id="CaYZFUY7cnY6W1_ikCHt-362" value="STREET" style="html=1;overflow=block;blockSpacing=1;whiteSpace=wrap;ellipse;fontSize=30;fontColor=#3a414a;spacing=3.8;strokeColor=#3a414a;strokeOpacity=100;rounded=1;absoluteArcSize=1;arcSize=9;strokeWidth=4;lucidId=OVfU4Ak3pdCx;container=0;fontFamily=Helvetica;fontStyle=1" parent="WIyWlLk6GJQsqaUBKTNV-1" vertex="1">
          <mxGeometry x="2669.5943562610228" y="-1709.7084548104956" width="220.5291005291005" height="139.32944606413994" as="geometry" />
        </mxCell>
        <mxCell id="CaYZFUY7cnY6W1_ikCHt-363" value="" style="html=1;jettySize=18;whiteSpace=wrap;fontSize=30;strokeColor=#3a414a;strokeOpacity=100;strokeWidth=4;rounded=0;startArrow=none;endArrow=none;lucidId=YXfU6EgUX91e;fontFamily=Helvetica;fontStyle=1;labelBorderColor=none;" parent="WIyWlLk6GJQsqaUBKTNV-1" source="CaYZFUY7cnY6W1_ikCHt-362" target="CaYZFUY7cnY6W1_ikCHt-359" edge="1">
          <mxGeometry width="100" height="100" relative="1" as="geometry">
            <Array as="points" />
          </mxGeometry>
        </mxCell>
        <mxCell id="CaYZFUY7cnY6W1_ikCHt-364" value="" style="html=1;jettySize=18;whiteSpace=wrap;fontSize=30;strokeColor=#3a414a;strokeOpacity=100;strokeWidth=4;rounded=0;startArrow=none;endArrow=none;lucidId=2XfUz3gdMXMw;fontFamily=Helvetica;fontStyle=1;labelBorderColor=none;" parent="WIyWlLk6GJQsqaUBKTNV-1" source="CaYZFUY7cnY6W1_ikCHt-361" target="CaYZFUY7cnY6W1_ikCHt-359" edge="1">
          <mxGeometry width="100" height="100" relative="1" as="geometry">
            <Array as="points" />
          </mxGeometry>
        </mxCell>
        <mxCell id="CaYZFUY7cnY6W1_ikCHt-365" value="" style="html=1;jettySize=18;whiteSpace=wrap;fontSize=30;strokeColor=#3a414a;strokeOpacity=100;strokeWidth=4;rounded=0;startArrow=none;endArrow=none;lucidId=18fU9-dBik.7;fontFamily=Helvetica;fontStyle=1" parent="WIyWlLk6GJQsqaUBKTNV-1" source="CaYZFUY7cnY6W1_ikCHt-360" target="CaYZFUY7cnY6W1_ikCHt-359" edge="1">
          <mxGeometry width="100" height="100" relative="1" as="geometry">
            <Array as="points" />
          </mxGeometry>
        </mxCell>
        <mxCell id="CaYZFUY7cnY6W1_ikCHt-366" value="" style="endArrow=none;html=1;rounded=0;fontSize=30;fontFamily=Helvetica;fontStyle=1;strokeWidth=4;" parent="WIyWlLk6GJQsqaUBKTNV-1" source="CaYZFUY7cnY6W1_ikCHt-347" target="CaYZFUY7cnY6W1_ikCHt-350" edge="1">
          <mxGeometry width="50" height="50" relative="1" as="geometry">
            <mxPoint x="3097.7883597883597" y="-1314.167638483965" as="sourcePoint" />
            <mxPoint x="2834.9911816578483" y="-1523.1618075801748" as="targetPoint" />
          </mxGeometry>
        </mxCell>
        <mxCell id="CaYZFUY7cnY6W1_ikCHt-367" value="" style="endArrow=none;html=1;rounded=0;fontSize=30;fontFamily=Helvetica;fontStyle=1;strokeWidth=4;" parent="WIyWlLk6GJQsqaUBKTNV-1" source="CaYZFUY7cnY6W1_ikCHt-347" target="CaYZFUY7cnY6W1_ikCHt-346" edge="1">
          <mxGeometry width="50" height="50" relative="1" as="geometry">
            <mxPoint x="2779.71188712522" y="-1437.5980466472304" as="sourcePoint" />
            <mxPoint x="2658.420881834215" y="-1411.2802623906705" as="targetPoint" />
          </mxGeometry>
        </mxCell>
        <mxCell id="CaYZFUY7cnY6W1_ikCHt-370" value="DATA_MNGT" style="html=1;overflow=block;blockSpacing=1;whiteSpace=wrap;fontSize=30;fontColor=#3a414a;spacing=9;strokeColor=#3a414a;strokeOpacity=100;rounded=1;absoluteArcSize=1;arcSize=9;strokeWidth=4;lucidId=C.fUB1nWtgO5;container=0;fontFamily=Helvetica;fontStyle=1" parent="WIyWlLk6GJQsqaUBKTNV-1" vertex="1">
          <mxGeometry x="1796.6666666666665" y="-223.52769679300263" width="220.5291005291005" height="139.32944606413994" as="geometry" />
        </mxCell>
        <mxCell id="CaYZFUY7cnY6W1_ikCHt-374" value="can" style="html=1;overflow=block;blockSpacing=1;whiteSpace=wrap;shape=rhombus;fontSize=30;fontColor=#3a414a;spacing=3.8;strokeColor=#3a414a;strokeOpacity=100;rounded=1;absoluteArcSize=1;arcSize=9;strokeWidth=4;lucidId=t.fUtBdnUzxN;container=0;fontFamily=Helvetica;fontStyle=1" parent="WIyWlLk6GJQsqaUBKTNV-1" vertex="1">
          <mxGeometry x="1704.779541446208" y="411.1953352769683" width="220.5291005291005" height="162.55102040816328" as="geometry" />
        </mxCell>
        <mxCell id="CaYZFUY7cnY6W1_ikCHt-375" style="rounded=0;orthogonalLoop=1;jettySize=auto;html=1;endArrow=none;endFill=0;exitX=0.5;exitY=1;exitDx=0;exitDy=0;fontSize=30;fontFamily=Helvetica;fontStyle=1;strokeWidth=4;" parent="WIyWlLk6GJQsqaUBKTNV-1" source="CaYZFUY7cnY6W1_ikCHt-374" target="CaYZFUY7cnY6W1_ikCHt-306" edge="1">
          <mxGeometry relative="1" as="geometry">
            <mxPoint x="2976.350335097002" y="379.5056268221574" as="sourcePoint" />
            <mxPoint x="2638.2057142857143" y="466.1995043731781" as="targetPoint" />
          </mxGeometry>
        </mxCell>
        <mxCell id="CaYZFUY7cnY6W1_ikCHt-821" value="&lt;span style=&quot;font-size: 30px;&quot;&gt;M&lt;/span&gt;" style="edgeLabel;html=1;align=center;verticalAlign=middle;resizable=0;points=[];container=0;fontSize=30;fontFamily=Helvetica;fontStyle=1" parent="CaYZFUY7cnY6W1_ikCHt-375" vertex="1" connectable="0">
          <mxGeometry x="0.6818" y="-2" relative="1" as="geometry">
            <mxPoint x="2" y="84" as="offset" />
          </mxGeometry>
        </mxCell>
        <mxCell id="CaYZFUY7cnY6W1_ikCHt-376" style="rounded=0;orthogonalLoop=1;jettySize=auto;html=1;endArrow=none;endFill=0;entryX=0.5;entryY=0;entryDx=0;entryDy=0;fontSize=30;fontFamily=Helvetica;fontStyle=1;strokeWidth=4;" parent="WIyWlLk6GJQsqaUBKTNV-1" source="CaYZFUY7cnY6W1_ikCHt-370" target="CaYZFUY7cnY6W1_ikCHt-374" edge="1">
          <mxGeometry relative="1" as="geometry">
            <mxPoint x="4020.3350970017636" y="540.0905539358605" as="sourcePoint" />
            <mxPoint x="3423.068783068783" y="458.04099125364473" as="targetPoint" />
          </mxGeometry>
        </mxCell>
        <mxCell id="CaYZFUY7cnY6W1_ikCHt-825" value="&lt;span style=&quot;font-size: 30px;&quot;&gt;1&lt;/span&gt;" style="edgeLabel;html=1;align=center;verticalAlign=middle;resizable=0;points=[];container=0;fontSize=30;fontFamily=Helvetica;fontStyle=1" parent="CaYZFUY7cnY6W1_ikCHt-376" vertex="1" connectable="0">
          <mxGeometry x="-0.4695" y="2" relative="1" as="geometry">
            <mxPoint x="3" y="-107" as="offset" />
          </mxGeometry>
        </mxCell>
        <mxCell id="CaYZFUY7cnY6W1_ikCHt-808" value="N" style="text;html=1;resizable=0;labelBackgroundColor=default;align=center;verticalAlign=middle;fontStyle=1;fontColor=#333333;fontSize=30;container=0;fontFamily=Helvetica;" parent="WIyWlLk6GJQsqaUBKTNV-1" vertex="1">
          <mxGeometry x="2081.5122709824673" y="782.7452769679304" as="geometry">
            <mxPoint y="142" as="offset" />
          </mxGeometry>
        </mxCell>
        <mxCell id="CaYZFUY7cnY6W1_ikCHt-809" value="has_a" style="html=1;overflow=block;blockSpacing=1;whiteSpace=wrap;shape=rhombus;fontSize=30;fontColor=#3a414a;spacing=3.8;strokeColor=#3a414a;strokeOpacity=100;rounded=1;absoluteArcSize=1;arcSize=9;strokeWidth=4;lucidId=t.fUtBdnUzxN;container=0;fontFamily=Helvetica;fontStyle=1" parent="WIyWlLk6GJQsqaUBKTNV-1" vertex="1">
          <mxGeometry x="1796.6666666666665" y="-486.7055393586006" width="220.5291005291005" height="162.55102040816328" as="geometry" />
        </mxCell>
        <mxCell id="CaYZFUY7cnY6W1_ikCHt-813" value="&lt;font style=&quot;font-size: 30px;&quot;&gt;&lt;span style=&quot;font-size: 30px;&quot;&gt;&lt;u style=&quot;font-size: 30px;&quot;&gt;DATAMNGT_ID&lt;/u&gt;&lt;/span&gt;&lt;/font&gt;" style="html=1;overflow=block;blockSpacing=1;whiteSpace=wrap;ellipse;fontSize=30;fontColor=#3a414a;spacing=3.8;strokeColor=#3a414a;strokeOpacity=100;rounded=1;absoluteArcSize=1;arcSize=9;strokeWidth=4;lucidId=DWfU4wRoh6Re;container=0;fontFamily=Helvetica;fontStyle=1" parent="WIyWlLk6GJQsqaUBKTNV-1" vertex="1">
          <mxGeometry x="2211.9964726631392" y="-146.1224489795918" width="220.5291005291005" height="139.32944606413994" as="geometry" />
        </mxCell>
        <mxCell id="CaYZFUY7cnY6W1_ikCHt-814" style="rounded=0;orthogonalLoop=1;jettySize=auto;html=1;endArrow=none;endFill=0;fontSize=30;fontFamily=Helvetica;fontStyle=1;strokeWidth=4;" parent="WIyWlLk6GJQsqaUBKTNV-1" source="CaYZFUY7cnY6W1_ikCHt-370" target="CaYZFUY7cnY6W1_ikCHt-813" edge="1">
          <mxGeometry relative="1" as="geometry">
            <mxPoint x="2055.7883597883597" y="-99.67930029154513" as="sourcePoint" />
            <mxPoint x="2024.5467372134037" y="16.42857142857156" as="targetPoint" />
          </mxGeometry>
        </mxCell>
        <mxCell id="CaYZFUY7cnY6W1_ikCHt-815" value="" style="endArrow=none;html=1;rounded=0;entryX=0.5;entryY=1;entryDx=0;entryDy=0;fontSize=30;fontFamily=Helvetica;fontStyle=1;strokeWidth=4;" parent="WIyWlLk6GJQsqaUBKTNV-1" source="CaYZFUY7cnY6W1_ikCHt-370" target="CaYZFUY7cnY6W1_ikCHt-809" edge="1">
          <mxGeometry width="50" height="50" relative="1" as="geometry">
            <mxPoint x="2120.1093474426807" y="-255.82116618075815" as="sourcePoint" />
            <mxPoint x="2818.451499118166" y="-563.894052478134" as="targetPoint" />
          </mxGeometry>
        </mxCell>
        <mxCell id="wvT5fDZXquklgUt5dEYW-259" value="&lt;font style=&quot;font-size: 30px;&quot;&gt;&lt;b style=&quot;font-size: 30px;&quot;&gt;N&lt;/b&gt;&lt;/font&gt;" style="edgeLabel;html=1;align=center;verticalAlign=middle;resizable=0;points=[];fontSize=30;" vertex="1" connectable="0" parent="CaYZFUY7cnY6W1_ikCHt-815">
          <mxGeometry x="0.2563" relative="1" as="geometry">
            <mxPoint x="18" y="33" as="offset" />
          </mxGeometry>
        </mxCell>
        <mxCell id="wvT5fDZXquklgUt5dEYW-262" value="&lt;font style=&quot;font-size: 30px;&quot;&gt;&lt;b style=&quot;font-size: 30px;&quot;&gt;N&lt;/b&gt;&lt;/font&gt;" style="edgeLabel;html=1;align=center;verticalAlign=middle;resizable=0;points=[];fontSize=30;" vertex="1" connectable="0" parent="CaYZFUY7cnY6W1_ikCHt-815">
          <mxGeometry x="0.2563" relative="1" as="geometry">
            <mxPoint x="-27" y="33" as="offset" />
          </mxGeometry>
        </mxCell>
        <mxCell id="CaYZFUY7cnY6W1_ikCHt-816" value="" style="endArrow=none;html=1;rounded=0;exitX=1;exitY=0.25;exitDx=0;exitDy=0;entryX=0;entryY=0.5;entryDx=0;entryDy=0;fontSize=30;fontFamily=Helvetica;fontStyle=1;strokeWidth=4;" parent="WIyWlLk6GJQsqaUBKTNV-1" source="CaYZFUY7cnY6W1_ikCHt-112" target="CaYZFUY7cnY6W1_ikCHt-809" edge="1">
          <mxGeometry width="50" height="50" relative="1" as="geometry">
            <mxPoint x="1215.9400352733685" y="-30.014577259475118" as="sourcePoint" />
            <mxPoint x="2009.8447971781304" y="-308.67346938775495" as="targetPoint" />
          </mxGeometry>
        </mxCell>
        <mxCell id="CaYZFUY7cnY6W1_ikCHt-826" value="&lt;span style=&quot;font-size: 30px;&quot;&gt;give&lt;/span&gt;" style="html=1;overflow=block;blockSpacing=1;whiteSpace=wrap;shape=rhombus;fontSize=30;fontColor=#3a414a;spacing=3.8;strokeColor=#3a414a;strokeOpacity=100;rounded=1;absoluteArcSize=1;arcSize=9;strokeWidth=4;lucidId=t.fUtBdnUzxN;container=0;fontFamily=Helvetica;fontStyle=1" parent="WIyWlLk6GJQsqaUBKTNV-1" vertex="1">
          <mxGeometry x="2880.9347442680773" y="875.6268221574346" width="220.5291005291005" height="162.55102040816328" as="geometry" />
        </mxCell>
        <mxCell id="CaYZFUY7cnY6W1_ikCHt-827" value="&lt;font style=&quot;font-size: 30px;&quot;&gt;&lt;span style=&quot;font-size: 30px;&quot;&gt;ANALYSIS_&lt;br style=&quot;font-size: 30px;&quot;&gt;RESULT&lt;/span&gt;&lt;/font&gt;" style="html=1;overflow=block;blockSpacing=1;whiteSpace=wrap;fontSize=30;fontColor=#3a414a;spacing=9;strokeColor=#3a414a;strokeOpacity=100;rounded=1;absoluteArcSize=1;arcSize=9;strokeWidth=4;lucidId=C.fUB1nWtgO5;container=0;fontFamily=Helvetica;fontStyle=1" parent="WIyWlLk6GJQsqaUBKTNV-1" vertex="1">
          <mxGeometry x="3560.899470899471" y="887.2376093294461" width="220.5291005291005" height="139.32944606413994" as="geometry" />
        </mxCell>
        <mxCell id="CaYZFUY7cnY6W1_ikCHt-828" style="rounded=0;orthogonalLoop=1;jettySize=auto;html=1;endArrow=none;endFill=0;fontSize=30;fontFamily=Helvetica;fontStyle=1;strokeWidth=4;" parent="WIyWlLk6GJQsqaUBKTNV-1" source="CaYZFUY7cnY6W1_ikCHt-826" target="CaYZFUY7cnY6W1_ikCHt-306" edge="1">
          <mxGeometry relative="1" as="geometry">
            <mxPoint x="3054.932204585538" y="1205.3886588921287" as="sourcePoint" />
            <mxPoint x="2412.8984832451506" y="966.9651204667916" as="targetPoint" />
          </mxGeometry>
        </mxCell>
        <mxCell id="CaYZFUY7cnY6W1_ikCHt-831" value="&lt;span style=&quot;font-size: 30px;&quot;&gt;N&lt;/span&gt;" style="edgeLabel;html=1;align=center;verticalAlign=middle;resizable=0;points=[];container=0;fontSize=30;fontFamily=Helvetica;fontStyle=1" parent="CaYZFUY7cnY6W1_ikCHt-828" vertex="1" connectable="0">
          <mxGeometry x="0.7945" y="-2" relative="1" as="geometry">
            <mxPoint x="-40" y="18" as="offset" />
          </mxGeometry>
        </mxCell>
        <mxCell id="CaYZFUY7cnY6W1_ikCHt-829" style="rounded=0;orthogonalLoop=1;jettySize=auto;html=1;endArrow=none;endFill=0;entryX=1;entryY=0.5;entryDx=0;entryDy=0;fontSize=30;fontFamily=Helvetica;fontStyle=1;strokeWidth=4;" parent="WIyWlLk6GJQsqaUBKTNV-1" source="CaYZFUY7cnY6W1_ikCHt-827" target="CaYZFUY7cnY6W1_ikCHt-826" edge="1">
          <mxGeometry relative="1" as="geometry">
            <mxPoint x="3935.798941798942" y="1309.9012244897963" as="sourcePoint" />
            <mxPoint x="3285.238095238095" y="1277.3910204081635" as="targetPoint" />
          </mxGeometry>
        </mxCell>
        <mxCell id="CaYZFUY7cnY6W1_ikCHt-830" value="&lt;span style=&quot;font-size: 30px;&quot;&gt;M&lt;/span&gt;" style="edgeLabel;html=1;align=center;verticalAlign=middle;resizable=0;points=[];container=0;fontSize=30;fontFamily=Helvetica;fontStyle=1" parent="CaYZFUY7cnY6W1_ikCHt-829" vertex="1" connectable="0">
          <mxGeometry x="-0.6551" y="3" relative="1" as="geometry">
            <mxPoint x="58" y="15" as="offset" />
          </mxGeometry>
        </mxCell>
        <mxCell id="CaYZFUY7cnY6W1_ikCHt-832" value="&lt;span style=&quot;font-size: 30px;&quot;&gt;&lt;span style=&quot;font-size: 30px;&quot;&gt;PREDICTION&lt;/span&gt;&lt;/span&gt;" style="html=1;overflow=block;blockSpacing=1;whiteSpace=wrap;ellipse;fontSize=30;fontColor=#3a414a;spacing=3.8;strokeColor=#3a414a;strokeOpacity=100;rounded=1;absoluteArcSize=1;arcSize=9;strokeWidth=4;lucidId=DWfU4wRoh6Re;container=0;fontFamily=Helvetica;fontStyle=1" parent="WIyWlLk6GJQsqaUBKTNV-1" vertex="1">
          <mxGeometry x="3303.6155202821865" y="1092.361516034986" width="220.5291005291005" height="139.32944606413994" as="geometry" />
        </mxCell>
        <mxCell id="CaYZFUY7cnY6W1_ikCHt-833" value="&lt;span style=&quot;font-size: 30px;&quot;&gt;&lt;span style=&quot;font-size: 30px;&quot;&gt;STRENGTHS&lt;/span&gt;&lt;/span&gt;" style="html=1;overflow=block;blockSpacing=1;whiteSpace=wrap;ellipse;fontSize=30;fontColor=#3a414a;spacing=3.8;strokeColor=#3a414a;strokeOpacity=100;rounded=1;absoluteArcSize=1;arcSize=9;strokeWidth=4;lucidId=DWfU4wRoh6Re;container=0;fontFamily=Helvetica;fontStyle=1" parent="WIyWlLk6GJQsqaUBKTNV-1" vertex="1">
          <mxGeometry x="3413.8800705467374" y="1266.5233236151607" width="220.5291005291005" height="139.32944606413994" as="geometry" />
        </mxCell>
        <mxCell id="CaYZFUY7cnY6W1_ikCHt-835" value="&lt;span style=&quot;font-size: 30px;&quot;&gt;&lt;span style=&quot;font-size: 30px;&quot;&gt;WEAKNESSES&lt;/span&gt;&lt;/span&gt;" style="html=1;overflow=block;blockSpacing=1;whiteSpace=wrap;ellipse;fontSize=30;fontColor=#3a414a;spacing=3.8;strokeColor=#3a414a;strokeOpacity=100;rounded=1;absoluteArcSize=1;arcSize=9;strokeWidth=4;lucidId=DWfU4wRoh6Re;container=0;fontFamily=Helvetica;fontStyle=1" parent="WIyWlLk6GJQsqaUBKTNV-1" vertex="1">
          <mxGeometry x="3689.5414462081126" y="1266.5233236151607" width="220.5291005291005" height="139.32944606413994" as="geometry" />
        </mxCell>
        <mxCell id="CaYZFUY7cnY6W1_ikCHt-836" style="rounded=0;orthogonalLoop=1;jettySize=auto;html=1;endArrow=none;endFill=0;fontSize=30;fontFamily=Helvetica;fontStyle=1;strokeWidth=4;" parent="WIyWlLk6GJQsqaUBKTNV-1" source="CaYZFUY7cnY6W1_ikCHt-832" target="CaYZFUY7cnY6W1_ikCHt-827" edge="1">
          <mxGeometry relative="1" as="geometry">
            <mxPoint x="4112.222222222222" y="1062.1734693877552" as="sourcePoint" />
            <mxPoint x="3652.786596119929" y="1062.1734693877552" as="targetPoint" />
          </mxGeometry>
        </mxCell>
        <mxCell id="CaYZFUY7cnY6W1_ikCHt-838" style="rounded=0;orthogonalLoop=1;jettySize=auto;html=1;endArrow=none;endFill=0;fontSize=30;fontFamily=Helvetica;fontStyle=1;strokeWidth=4;" parent="WIyWlLk6GJQsqaUBKTNV-1" source="CaYZFUY7cnY6W1_ikCHt-833" target="CaYZFUY7cnY6W1_ikCHt-827" edge="1">
          <mxGeometry relative="1" as="geometry">
            <mxPoint x="3629.869947089947" y="1170.5408163265306" as="sourcePoint" />
            <mxPoint x="3712.56835978836" y="1093.1355685131198" as="targetPoint" />
          </mxGeometry>
        </mxCell>
        <mxCell id="CaYZFUY7cnY6W1_ikCHt-840" style="rounded=0;orthogonalLoop=1;jettySize=auto;html=1;endArrow=none;endFill=0;fontSize=30;fontFamily=Helvetica;fontStyle=1;strokeWidth=4;" parent="WIyWlLk6GJQsqaUBKTNV-1" source="CaYZFUY7cnY6W1_ikCHt-835" target="CaYZFUY7cnY6W1_ikCHt-827" edge="1">
          <mxGeometry relative="1" as="geometry">
            <mxPoint x="3878.7186596119927" y="1142.6749271137028" as="sourcePoint" />
            <mxPoint x="3873.2054320987654" y="953.8061224489797" as="targetPoint" />
          </mxGeometry>
        </mxCell>
        <mxCell id="CaYZFUY7cnY6W1_ikCHt-841" value="&lt;span style=&quot;font-size: 30px;&quot;&gt;give&lt;/span&gt;" style="html=1;overflow=block;blockSpacing=1;whiteSpace=wrap;shape=rhombus;fontSize=30;fontColor=#3a414a;spacing=3.8;strokeColor=#3a414a;strokeOpacity=100;rounded=1;absoluteArcSize=1;arcSize=9;strokeWidth=4;lucidId=t.fUtBdnUzxN;container=0;fontFamily=Helvetica;fontStyle=1" parent="WIyWlLk6GJQsqaUBKTNV-1" vertex="1">
          <mxGeometry x="4093.8447971781297" y="875.6268221574346" width="220.5291005291005" height="162.55102040816328" as="geometry" />
        </mxCell>
        <mxCell id="CaYZFUY7cnY6W1_ikCHt-842" value="&lt;font style=&quot;font-size: 22px;&quot;&gt;&lt;span style=&quot;font-size: 22px;&quot;&gt;INTERVENTION_&lt;br style=&quot;font-size: 22px;&quot;&gt;STRAT.&lt;/span&gt;&lt;/font&gt;" style="html=1;overflow=block;blockSpacing=1;whiteSpace=wrap;fontSize=22;fontColor=#3a414a;spacing=9;strokeColor=#3a414a;strokeOpacity=100;rounded=1;absoluteArcSize=1;arcSize=9;strokeWidth=4;lucidId=C.fUB1nWtgO5;container=0;fontFamily=Helvetica;fontStyle=1" parent="WIyWlLk6GJQsqaUBKTNV-1" vertex="1">
          <mxGeometry x="4571.657848324515" y="887.2376093294461" width="220.5291005291005" height="139.32944606413994" as="geometry" />
        </mxCell>
        <mxCell id="CaYZFUY7cnY6W1_ikCHt-843" style="rounded=0;orthogonalLoop=1;jettySize=auto;html=1;endArrow=none;endFill=0;fontSize=30;fontFamily=Helvetica;fontStyle=1;strokeWidth=4;" parent="WIyWlLk6GJQsqaUBKTNV-1" source="CaYZFUY7cnY6W1_ikCHt-841" target="CaYZFUY7cnY6W1_ikCHt-827" edge="1">
          <mxGeometry relative="1" as="geometry">
            <mxPoint x="4277.619047619048" y="1093.1355685131198" as="sourcePoint" />
            <mxPoint x="3818.183421516755" y="1093.1355685131198" as="targetPoint" />
          </mxGeometry>
        </mxCell>
        <mxCell id="CaYZFUY7cnY6W1_ikCHt-844" value="&lt;span style=&quot;font-size: 30px;&quot;&gt;N&lt;/span&gt;" style="edgeLabel;html=1;align=center;verticalAlign=middle;resizable=0;points=[];container=0;fontSize=30;fontFamily=Helvetica;fontStyle=1" parent="CaYZFUY7cnY6W1_ikCHt-843" vertex="1" connectable="0">
          <mxGeometry x="-0.6551" y="3" relative="1" as="geometry">
            <mxPoint x="-249" y="15" as="offset" />
          </mxGeometry>
        </mxCell>
        <mxCell id="CaYZFUY7cnY6W1_ikCHt-845" style="rounded=0;orthogonalLoop=1;jettySize=auto;html=1;endArrow=none;endFill=0;entryX=1;entryY=0.5;entryDx=0;entryDy=0;fontSize=30;fontFamily=Helvetica;fontStyle=1;strokeWidth=4;" parent="WIyWlLk6GJQsqaUBKTNV-1" source="CaYZFUY7cnY6W1_ikCHt-842" target="CaYZFUY7cnY6W1_ikCHt-841" edge="1">
          <mxGeometry relative="1" as="geometry">
            <mxPoint x="4488.959435626102" y="1154.2857142857142" as="sourcePoint" />
            <mxPoint x="4176.543209876543" y="1154.2857142857142" as="targetPoint" />
          </mxGeometry>
        </mxCell>
        <mxCell id="CaYZFUY7cnY6W1_ikCHt-847" value="&lt;span style=&quot;font-size: 30px;&quot;&gt;M&lt;/span&gt;" style="edgeLabel;html=1;align=center;verticalAlign=middle;resizable=0;points=[];container=0;fontSize=30;fontFamily=Helvetica;fontStyle=1" parent="CaYZFUY7cnY6W1_ikCHt-845" vertex="1" connectable="0">
          <mxGeometry x="-0.5496" relative="1" as="geometry">
            <mxPoint x="37" y="13" as="offset" />
          </mxGeometry>
        </mxCell>
        <mxCell id="CaYZFUY7cnY6W1_ikCHt-848" value="&lt;span style=&quot;font-size: 30px;&quot;&gt;&lt;span style=&quot;font-size: 30px;&quot;&gt;&lt;u style=&quot;font-size: 30px;&quot;&gt;RESULT_ID&lt;/u&gt;&lt;/span&gt;&lt;/span&gt;" style="html=1;overflow=block;blockSpacing=1;whiteSpace=wrap;ellipse;fontSize=30;fontColor=#3a414a;spacing=3.8;strokeColor=#3a414a;strokeOpacity=100;rounded=1;absoluteArcSize=1;arcSize=9;strokeWidth=4;lucidId=DWfU4wRoh6Re;container=0;fontFamily=Helvetica;fontStyle=1" parent="WIyWlLk6GJQsqaUBKTNV-1" vertex="1">
          <mxGeometry x="3910.070546737213" y="1123.32361516035" width="220.5291005291005" height="139.32944606413994" as="geometry" />
        </mxCell>
        <mxCell id="CaYZFUY7cnY6W1_ikCHt-849" style="rounded=0;orthogonalLoop=1;jettySize=auto;html=1;endArrow=none;endFill=0;fontSize=30;fontFamily=Helvetica;fontStyle=1;strokeWidth=4;" parent="WIyWlLk6GJQsqaUBKTNV-1" source="CaYZFUY7cnY6W1_ikCHt-848" target="CaYZFUY7cnY6W1_ikCHt-827" edge="1">
          <mxGeometry relative="1" as="geometry">
            <mxPoint x="3915.4735097001762" y="1216.101545189505" as="sourcePoint" />
            <mxPoint x="3818.0731569664904" y="1024.1365306122457" as="targetPoint" />
          </mxGeometry>
        </mxCell>
        <mxCell id="CaYZFUY7cnY6W1_ikCHt-850" value="&lt;span style=&quot;font-size: 22px;&quot;&gt;&lt;span style=&quot;font-size: 22px;&quot;&gt;&lt;u style=&quot;font-size: 22px;&quot;&gt;INTERVENTION_&lt;br style=&quot;font-size: 22px;&quot;&gt;STRAT_ID&lt;/u&gt;&lt;/span&gt;&lt;/span&gt;" style="html=1;overflow=block;blockSpacing=1;whiteSpace=wrap;ellipse;fontSize=22;fontColor=#3a414a;spacing=3.8;strokeColor=#3a414a;strokeOpacity=100;rounded=1;absoluteArcSize=1;arcSize=9;strokeWidth=4;lucidId=DWfU4wRoh6Re;container=0;fontFamily=Helvetica;fontStyle=1" parent="WIyWlLk6GJQsqaUBKTNV-1" vertex="1">
          <mxGeometry x="4645.167548500882" y="1192.98833819242" width="220.5291005291005" height="139.32944606413994" as="geometry" />
        </mxCell>
        <mxCell id="CaYZFUY7cnY6W1_ikCHt-851" value="&lt;span style=&quot;font-size: 22px;&quot;&gt;&lt;span style=&quot;font-size: 22px;&quot;&gt;STRAT_DETAILS&lt;/span&gt;&lt;/span&gt;" style="html=1;overflow=block;blockSpacing=1;whiteSpace=wrap;ellipse;fontSize=22;fontColor=#3a414a;spacing=3.8;strokeColor=#3a414a;strokeOpacity=100;rounded=1;absoluteArcSize=1;arcSize=9;strokeWidth=4;lucidId=DWfU4wRoh6Re;container=0;fontFamily=Helvetica;fontStyle=1" parent="WIyWlLk6GJQsqaUBKTNV-1" vertex="1">
          <mxGeometry x="4920.828924162257" y="1092.361516034986" width="220.5291005291005" height="139.32944606413994" as="geometry" />
        </mxCell>
        <mxCell id="CaYZFUY7cnY6W1_ikCHt-852" value="&lt;span style=&quot;font-size: 22px;&quot;&gt;&lt;span style=&quot;font-size: 22px;&quot;&gt;RECOMMENDATION&lt;br style=&quot;font-size: 22px;&quot;&gt;_DETAILS&lt;br style=&quot;font-size: 22px;&quot;&gt;&lt;/span&gt;&lt;/span&gt;" style="html=1;overflow=block;blockSpacing=1;whiteSpace=wrap;ellipse;fontSize=22;fontColor=#3a414a;spacing=3.8;strokeColor=#3a414a;strokeOpacity=100;rounded=1;absoluteArcSize=1;arcSize=9;strokeWidth=4;lucidId=DWfU4wRoh6Re;container=0;fontFamily=Helvetica;fontStyle=1" parent="WIyWlLk6GJQsqaUBKTNV-1" vertex="1">
          <mxGeometry x="4920.828924162257" y="747.9081632653065" width="220.5291005291005" height="139.32944606413994" as="geometry" />
        </mxCell>
        <mxCell id="CaYZFUY7cnY6W1_ikCHt-853" value="&lt;span style=&quot;font-size: 22px;&quot;&gt;&lt;span style=&quot;font-size: 22px;&quot;&gt;IMPLEMENTATION_&lt;br style=&quot;font-size: 22px;&quot;&gt;PLAN&lt;br style=&quot;font-size: 22px;&quot;&gt;&lt;/span&gt;&lt;/span&gt;" style="html=1;overflow=block;blockSpacing=1;whiteSpace=wrap;ellipse;fontSize=22;fontColor=#3a414a;spacing=3.8;strokeColor=#3a414a;strokeOpacity=100;rounded=1;absoluteArcSize=1;arcSize=9;strokeWidth=4;lucidId=DWfU4wRoh6Re;container=0;fontFamily=Helvetica;fontStyle=1" parent="WIyWlLk6GJQsqaUBKTNV-1" vertex="1">
          <mxGeometry x="5049.470899470899" y="929.8104956268226" width="220.5291005291005" height="139.32944606413994" as="geometry" />
        </mxCell>
        <mxCell id="CaYZFUY7cnY6W1_ikCHt-854" value="&lt;span style=&quot;font-size: 22px;&quot;&gt;&lt;span style=&quot;font-size: 22px;&quot;&gt;EVALUATION&lt;br style=&quot;font-size: 22px;&quot;&gt;_PLAN&lt;br style=&quot;font-size: 22px;&quot;&gt;&lt;/span&gt;&lt;/span&gt;" style="html=1;overflow=block;blockSpacing=1;whiteSpace=wrap;ellipse;fontSize=22;fontColor=#3a414a;spacing=3.8;strokeColor=#3a414a;strokeOpacity=100;rounded=1;absoluteArcSize=1;arcSize=9;strokeWidth=4;lucidId=DWfU4wRoh6Re;container=0;fontFamily=Helvetica;fontStyle=1" parent="WIyWlLk6GJQsqaUBKTNV-1" vertex="1">
          <mxGeometry x="4718.677248677249" y="643.4110787172012" width="220.5291005291005" height="139.32944606413994" as="geometry" />
        </mxCell>
        <mxCell id="CaYZFUY7cnY6W1_ikCHt-855" style="rounded=0;orthogonalLoop=1;jettySize=auto;html=1;endArrow=none;endFill=0;fontSize=22;fontFamily=Helvetica;fontStyle=1;strokeWidth=4;" parent="WIyWlLk6GJQsqaUBKTNV-1" source="CaYZFUY7cnY6W1_ikCHt-850" target="CaYZFUY7cnY6W1_ikCHt-842" edge="1">
          <mxGeometry relative="1" as="geometry">
            <mxPoint x="4634.012451499118" y="1173.5131778425657" as="sourcePoint" />
            <mxPoint x="4463.102398589065" y="1058.953411078718" as="targetPoint" />
          </mxGeometry>
        </mxCell>
        <mxCell id="CaYZFUY7cnY6W1_ikCHt-856" style="rounded=0;orthogonalLoop=1;jettySize=auto;html=1;endArrow=none;endFill=0;fontSize=22;fontFamily=Helvetica;fontStyle=1;strokeWidth=4;" parent="WIyWlLk6GJQsqaUBKTNV-1" source="CaYZFUY7cnY6W1_ikCHt-851" target="CaYZFUY7cnY6W1_ikCHt-842" edge="1">
          <mxGeometry relative="1" as="geometry">
            <mxPoint x="4767.377425044091" y="1173.6370262390674" as="sourcePoint" />
            <mxPoint x="4596.467372134039" y="1059.0772594752189" as="targetPoint" />
          </mxGeometry>
        </mxCell>
        <mxCell id="CaYZFUY7cnY6W1_ikCHt-857" style="rounded=0;orthogonalLoop=1;jettySize=auto;html=1;endArrow=none;endFill=0;fontSize=22;fontFamily=Helvetica;fontStyle=1;strokeWidth=4;" parent="WIyWlLk6GJQsqaUBKTNV-1" source="CaYZFUY7cnY6W1_ikCHt-853" target="CaYZFUY7cnY6W1_ikCHt-842" edge="1">
          <mxGeometry relative="1" as="geometry">
            <mxPoint x="4865.696649029982" y="1152.737609329446" as="sourcePoint" />
            <mxPoint x="4694.7865961199295" y="1038.1778425655984" as="targetPoint" />
          </mxGeometry>
        </mxCell>
        <mxCell id="CaYZFUY7cnY6W1_ikCHt-858" style="rounded=0;orthogonalLoop=1;jettySize=auto;html=1;endArrow=none;endFill=0;fontSize=22;fontFamily=Helvetica;fontStyle=1;strokeWidth=4;" parent="WIyWlLk6GJQsqaUBKTNV-1" source="CaYZFUY7cnY6W1_ikCHt-854" target="CaYZFUY7cnY6W1_ikCHt-842" edge="1">
          <mxGeometry relative="1" as="geometry">
            <mxPoint x="4981.47442680776" y="1098.5539358600586" as="sourcePoint" />
            <mxPoint x="4810.564373897707" y="983.99416909621" as="targetPoint" />
          </mxGeometry>
        </mxCell>
        <mxCell id="CaYZFUY7cnY6W1_ikCHt-859" style="rounded=0;orthogonalLoop=1;jettySize=auto;html=1;endArrow=none;endFill=0;fontSize=22;fontFamily=Helvetica;fontStyle=1;strokeWidth=4;" parent="WIyWlLk6GJQsqaUBKTNV-1" source="CaYZFUY7cnY6W1_ikCHt-852" target="CaYZFUY7cnY6W1_ikCHt-842" edge="1">
          <mxGeometry relative="1" as="geometry">
            <mxPoint x="5018.229276895944" y="1069.1399416909621" as="sourcePoint" />
            <mxPoint x="4847.31922398589" y="954.5801749271145" as="targetPoint" />
          </mxGeometry>
        </mxCell>
      </root>
    </mxGraphModel>
  </diagram>
</mxfile>
